<?xml version="1.0" encoding="utf-8"?>
<!-- Generator: Adobe Illustrator 16.0.0, SVG Export Plug-In . SVG Version: 6.00 Build 0)  -->
<!DOCTYPE svg PUBLIC "-//W3C//DTD SVG 1.1//EN" "http://www.w3.org/Graphics/SVG/1.1/DTD/svg11.dtd">
<svg version="1.1" id="Layer_1" xmlns="http://www.w3.org/2000/svg" xmlns:xlink="http://www.w3.org/1999/xlink" x="0px" y="0px"
	 width="800px" height="715.036px" viewBox="0 0 800 715.036" enable-background="new 0 0 800 715.036" xml:space="preserve">
<g>
	<g>
		<path fill="#FFFFFF" d="M713.911,18.935c27.433,0,49.342,10.697,60.107,29.347c10.765,18.646,9.075,42.966-4.641,66.724
			L455.479,658.719c-13.721,23.758-33.941,37.382-55.474,37.382c-21.538,0-41.754-13.622-55.465-37.378L30.626,115.003
			c-13.716-23.749-15.409-48.069-4.648-66.718C36.754,29.634,58.667,18.935,86.1,18.935H713.911 M713.911,0H86.1
			C51.716,0,23.831,14.149,9.583,38.815C-4.653,63.484-2.965,94.7,14.229,124.474L328.141,668.19
			c17.185,29.771,43.382,46.846,71.864,46.846c28.472,0,54.668-17.062,71.87-46.846l313.9-543.716
			c17.186-29.773,18.88-60.996,4.642-85.659C776.176,14.147,748.288,0,713.911,0L713.911,0z"/>
	</g>
	<g>
		<g>
			<path fill="#FFFFFF" d="M713.911,37.872H478.145c-42.975,0-113.304,0-156.269,0H86.1c-42.981,0-60.564,30.446-39.076,67.665
				l117.896,204.193c21.478,37.224,56.648,98.117,78.136,135.334l117.891,204.2c21.476,37.201,56.636,37.201,78.134,0l117.871-204.2
				c21.502-37.218,56.648-98.11,78.14-135.334l117.884-204.193C774.464,68.318,756.891,37.872,713.911,37.872z M548.98,109.164
				c0-0.158,0.129-0.284,0.285-0.284h14.352c0.156,0,0.285,0.126,0.285,0.284v45.38h24.252c0.155,0,0.284,0.127,0.284,0.285v12.789
				c0,0.156-0.129,0.283-0.284,0.283h-38.889c-0.156,0-0.285-0.126-0.285-0.283V109.164z M492.988,109.164
				c0-0.158,0.129-0.284,0.285-0.284h39.731c0.156,0,0.286,0.126,0.286,0.284v12.79c0,0.156-0.13,0.283-0.286,0.283H507.91v9.216
				h21.406c0.156,0,0.285,0.127,0.285,0.283v12.789c0,0.158-0.129,0.285-0.285,0.285H507.91v9.735h25.095
				c0.156,0,0.286,0.127,0.286,0.285v12.789c0,0.156-0.13,0.283-0.286,0.283h-39.731c-0.156,0-0.285-0.126-0.285-0.283V109.164z
				 M461.061,109.164c0-0.158,0.129-0.284,0.285-0.284h14.354c0.156,0,0.284,0.126,0.284,0.284v58.455
				c0,0.156-0.128,0.283-0.284,0.283h-14.354c-0.156,0-0.285-0.126-0.285-0.283V109.164z M406.525,109.164
				c0-0.158,0.129-0.284,0.285-0.284h39.732c0.156,0,0.285,0.126,0.285,0.284v12.79c0,0.156-0.129,0.283-0.285,0.283h-25.096v9.696
				h21.406c0.156,0,0.285,0.127,0.285,0.285v12.79c0,0.156-0.129,0.283-0.285,0.283h-21.406v22.329c0,0.156-0.128,0.283-0.284,0.283
				h-14.353c-0.156,0-0.285-0.126-0.285-0.283V109.164z M345.722,160.201l9.221-9.222c0.107-0.106,0.295-0.106,0.402,0
				c1.402,1.403,3.275,2.438,5.568,3.076c2.314,0.644,4.757,0.972,7.261,0.972c5.447,0,8.096-1.626,8.096-4.969
				c0-1.413-0.365-2.505-1.083-3.249c-0.727-0.752-1.965-1.25-3.683-1.482l-7.058-1.001c-5.224-0.726-9.231-2.494-11.911-5.255
				c-2.713-2.795-4.089-6.813-4.089-11.945c0-3.593,0.884-6.847,2.628-9.67c1.744-2.827,4.278-5.067,7.533-6.661
				c3.248-1.591,7.101-2.396,11.452-2.396c4.312,0,8.141,0.564,11.378,1.679c3.248,1.118,6.123,2.929,8.549,5.381
				c0.11,0.11,0.109,0.291-0.001,0.402l-9.021,9.021c-0.111,0.111-0.291,0.111-0.402,0c-1.453-1.453-3.04-2.385-4.714-2.772
				c-1.707-0.394-3.79-0.593-6.19-0.593c-2.214,0-3.917,0.527-5.061,1.569c-1.151,1.05-1.711,2.214-1.711,3.559
				c0,0.974,0.354,1.799,1.08,2.525c0.857,0.861,2.151,1.413,3.846,1.646l7.057,0.962c5.171,0.753,9.096,2.412,11.667,4.928
				c1.548,1.495,2.685,3.333,3.379,5.469c0.688,2.118,1.036,4.663,1.036,7.565c0,3.864-1.036,7.252-3.08,10.068
				c-2.042,2.811-4.833,4.967-8.301,6.411c-3.452,1.437-7.312,2.167-11.475,2.167c-4.845,0-9.123-0.585-12.716-1.739
				c-3.609-1.155-6.858-3.191-9.658-6.044C345.611,160.489,345.612,160.312,345.722,160.201z M285.338,109.164
				c0-0.158,0.127-0.284,0.284-0.284h12.553c0.097,0,0.187,0.05,0.239,0.132l18.196,28.565v-28.413c0-0.158,0.126-0.284,0.284-0.284
				h14.353c0.157,0,0.284,0.126,0.284,0.284v58.455c0,0.156-0.127,0.283-0.284,0.283h-12.548c-0.097,0-0.188-0.048-0.239-0.13
				l-18.2-28.565v28.413c0,0.156-0.127,0.283-0.284,0.283h-14.353c-0.157,0-0.284-0.126-0.284-0.283V109.164z M239.841,109.066
				c0.041-0.111,0.148-0.187,0.268-0.187h11.104c0.119,0,0.227,0.075,0.268,0.187l21.249,58.455c0.031,0.088,0.019,0.184-0.035,0.26
				c-0.053,0.076-0.14,0.121-0.232,0.121h-14.994c-0.124,0-0.234-0.08-0.271-0.199l-2.664-8.5h-17.587l-2.782,8.503
				c-0.039,0.117-0.147,0.195-0.27,0.195H218.86c-0.093,0-0.18-0.044-0.232-0.121c-0.054-0.076-0.066-0.171-0.035-0.26
				L239.841,109.066z M77.987,90.311c-7.162,0-12.977-5.808-12.977-12.965c0-7.159,5.815-12.965,12.977-12.965
				c7.155,0,12.953,5.806,12.953,12.965C90.94,84.503,85.142,90.311,77.987,90.311z M167.495,167.619
				c0,0.156-0.127,0.283-0.284,0.283h-14.353c-0.157,0-0.284-0.126-0.284-0.283v-58.455c0-0.158,0.127-0.284,0.284-0.284h14.112
				c0.107,0,0.205,0.061,0.253,0.156l12.856,25.282l12.897-25.282c0.048-0.095,0.147-0.156,0.253-0.156h14.112
				c0.157,0,0.284,0.126,0.284,0.284v58.455c0,0.156-0.127,0.283-0.284,0.283h-14.354c-0.156,0-0.284-0.126-0.284-0.283v-26.921
				l-7.769,13.511c-0.051,0.087-0.145,0.142-0.246,0.142h-9.182c-0.102,0-0.195-0.055-0.246-0.142l-7.768-13.511V167.619z
				 M216.076,230.576c0,0.839-0.156,1.432-0.478,1.812c-0.326,0.383-0.846,0.578-1.549,0.578c-0.726,0-1.26-0.197-1.592-0.587
				c-0.328-0.384-0.487-0.976-0.487-1.803v-1.632h-7.68v4.06l2.672-0.019c0-0.705,0.163-1.241,0.481-1.599
				c0.324-0.365,0.815-0.549,1.458-0.549c0.565,0,1.037,0.164,1.4,0.49c0.37,0.332,0.557,0.755,0.557,1.259
				c0,0.023,0.006,0.092,0.017,0.207c0.012,0.134,0.019,0.267,0.019,0.4v3.587c0,0.826-0.15,1.409-0.459,1.786
				c-0.314,0.378-0.818,0.57-1.498,0.57c-0.641,0-1.135-0.176-1.472-0.525c-0.333-0.348-0.502-0.859-0.502-1.519v-0.123h-2.672
				v4.803h7.68v-1.874c0-0.828,0.16-1.413,0.489-1.788c0.332-0.376,0.866-0.568,1.59-0.568c0.713,0,1.237,0.189,1.556,0.562
				c0.316,0.367,0.47,0.955,0.47,1.794v4.196c0,0.688-0.141,1.144-0.43,1.39c-0.281,0.243-0.792,0.359-1.562,0.359H199.89
				c-0.819,0-1.396-0.164-1.766-0.502c-0.369-0.335-0.556-0.878-0.556-1.612c0-0.66,0.176-1.175,0.523-1.528
				c0.347-0.353,0.852-0.533,1.503-0.533h0.105v-12.551h-0.105c-0.64,0-1.144-0.185-1.497-0.55c-0.351-0.365-0.53-0.886-0.53-1.546
				c0-0.722,0.189-1.261,0.564-1.604c0.371-0.338,0.962-0.507,1.757-0.507h14.194c0.758,0,1.267,0.119,1.553,0.365
				c0.295,0.255,0.439,0.718,0.439,1.418V230.576z M241.597,244.095c0,0.688-0.141,1.142-0.43,1.39
				c-0.281,0.243-0.798,0.359-1.579,0.359h-15.72c-0.797,0-1.384-0.17-1.74-0.502c-0.362-0.335-0.546-0.878-0.546-1.612
				c0-0.722,0.181-1.253,0.538-1.579c0.358-0.324,0.931-0.482,1.748-0.482h1.336v-12.551h-1.336c-0.797,0-1.384-0.168-1.74-0.501
				c-0.362-0.336-0.546-0.873-0.546-1.595c0-0.724,0.193-1.263,0.574-1.604c0.375-0.338,0.963-0.507,1.747-0.507h7.383
				c0.785,0,1.372,0.169,1.748,0.507c0.381,0.341,0.574,0.882,0.574,1.604c0,0.724-0.19,1.261-0.565,1.597
				c-0.375,0.337-0.95,0.5-1.756,0.5h-1.3v12.551h7.507v-2.896c0-0.851,0.152-1.446,0.469-1.821
				c0.319-0.378,0.843-0.569,1.558-0.569c0.711,0,1.243,0.193,1.58,0.576c0.335,0.38,0.499,0.976,0.499,1.814V244.095z
				 M265.161,230.576c0,0.839-0.156,1.432-0.478,1.812c-0.325,0.383-0.846,0.578-1.549,0.578c-0.725,0-1.26-0.197-1.591-0.587
				c-0.328-0.384-0.487-0.976-0.487-1.803v-1.632h-7.68v4.06l2.672-0.019c0-0.705,0.163-1.241,0.481-1.599
				c0.324-0.365,0.815-0.549,1.458-0.549c0.565,0,1.037,0.164,1.4,0.49c0.37,0.332,0.557,0.755,0.557,1.259
				c0,0.023,0.006,0.092,0.017,0.207c0.012,0.134,0.019,0.267,0.019,0.4v3.587c0,0.826-0.15,1.409-0.459,1.786
				c-0.314,0.378-0.818,0.57-1.498,0.57c-0.641,0-1.135-0.176-1.472-0.525c-0.333-0.348-0.502-0.859-0.502-1.519v-0.123h-2.672
				v4.803h7.68v-1.874c0-0.828,0.16-1.413,0.489-1.788c0.332-0.376,0.867-0.568,1.589-0.568c0.713,0,1.237,0.189,1.557,0.562
				c0.316,0.367,0.47,0.955,0.47,1.794v4.196c0,0.688-0.14,1.144-0.43,1.39c-0.281,0.243-0.792,0.359-1.562,0.359h-14.194
				c-0.819,0-1.396-0.164-1.766-0.502c-0.369-0.335-0.555-0.878-0.555-1.612c0-0.66,0.175-1.175,0.523-1.528
				c0.347-0.353,0.852-0.533,1.503-0.533h0.105v-12.551h-0.105c-0.64,0-1.144-0.185-1.497-0.55c-0.352-0.365-0.53-0.886-0.53-1.546
				c0-0.722,0.189-1.261,0.564-1.604c0.371-0.338,0.962-0.507,1.757-0.507h14.194c0.758,0,1.267,0.119,1.553,0.365
				c0.295,0.255,0.439,0.718,0.439,1.418V230.576z M291.326,228.567c-0.36,0.365-0.878,0.55-1.54,0.55h-0.144l-5.241,14.899
				c-0.293,0.833-0.577,1.335-0.869,1.534c-0.291,0.197-0.762,0.293-1.442,0.293h-2.131c-1.089,0-1.854-0.578-2.275-1.719
				l-0.037-0.11l-5.344-14.897h-0.161c-0.64,0-1.139-0.184-1.481-0.542c-0.339-0.359-0.51-0.882-0.51-1.554
				c0-0.746,0.18-1.29,0.537-1.62c0.357-0.332,0.929-0.492,1.75-0.492h5.147c0.795,0,1.386,0.169,1.757,0.507
				c0.375,0.343,0.564,0.882,0.564,1.604c0,0.724-0.19,1.261-0.565,1.597c-0.376,0.337-0.95,0.5-1.756,0.5h-0.204l3.899,11.517
				l4.028-11.517h-0.201c-0.818,0-1.396-0.16-1.764-0.49c-0.37-0.332-0.558-0.871-0.558-1.606c0-0.731,0.187-1.274,0.556-1.612
				c0.37-0.335,0.958-0.5,1.8-0.5h4.368c0.842,0,1.431,0.164,1.8,0.5c0.369,0.338,0.555,0.88,0.555,1.612
				C291.865,227.684,291.684,228.202,291.326,228.567z M299.738,229.118c-0.842,0-1.435-0.162-1.815-0.498
				c-0.382-0.338-0.576-0.875-0.576-1.599c0-0.734,0.193-1.276,0.576-1.614c0.38-0.336,0.973-0.498,1.815-0.498h6.499
				c1.111,0,1.9,0.601,2.344,1.786l5.449,14.973h0.162c0.672,0,1.195,0.178,1.555,0.531c0.359,0.354,0.542,0.869,0.542,1.53
				c0,0.736-0.193,1.278-0.576,1.614c-0.379,0.336-0.973,0.5-1.815,0.5h-5.216c-0.854,0-1.45-0.16-1.824-0.49
				c-0.377-0.329-0.567-0.876-0.567-1.624c0-0.724,0.191-1.257,0.568-1.583c0.375-0.322,0.971-0.478,1.823-0.478h0.338l-0.578-1.649
				h-7.221l-0.605,1.649h0.334c0.841,0,1.435,0.16,1.814,0.488c0.382,0.333,0.577,0.861,0.577,1.573
				c0,0.736-0.193,1.278-0.576,1.614c-0.38,0.336-0.973,0.5-1.815,0.5h-4.471c-0.853,0-1.45-0.164-1.825-0.5
				c-0.375-0.337-0.566-0.88-0.566-1.614c0-0.662,0.183-1.177,0.542-1.53c0.358-0.353,0.881-0.531,1.554-0.531h0.162l4.508-12.551
				H299.738z M400.511,647.463c-7.166,0-12.969-5.799-12.969-12.957c0-7.156,5.803-12.965,12.969-12.965
				c7.157,0,12.958,5.809,12.958,12.965C413.47,641.665,407.668,647.463,400.511,647.463z M400.523,500.87
				c-58.527,0-106.002-47.457-106.002-106.014c0-58.553,47.475-106.019,106.002-106.019c58.557,0,106.019,47.466,106.019,106.019
				C506.542,453.413,459.08,500.87,400.523,500.87z M334.432,241.634c0.83,0,1.415,0.164,1.79,0.499
				c0.375,0.338,0.566,0.875,0.566,1.597c0,0.734-0.19,1.276-0.565,1.614c-0.376,0.336-0.961,0.5-1.791,0.5h-10.294
				c-0.808,0-1.405-0.168-1.773-0.5c-0.375-0.335-0.565-0.878-0.565-1.614c0-0.734,0.187-1.274,0.556-1.606
				c0.369-0.33,0.951-0.489,1.782-0.489h2.722v-12.552h-3.25l-0.099,3.763c0,0.603-0.173,1.085-0.512,1.433
				c-0.341,0.348-0.816,0.525-1.41,0.525c-0.699,0-1.227-0.187-1.568-0.554c-0.339-0.363-0.511-0.935-0.511-1.698v-0.139
				l0.191-5.189c0.037-1.108,0.193-1.742,0.493-1.993c0.285-0.24,0.822-0.355,1.638-0.355h14.905c0.816,0,1.353,0.115,1.638,0.355
				c0.298,0.25,0.46,0.882,0.51,1.991l0.173,5.33c0,0.773-0.162,1.347-0.481,1.704c-0.325,0.363-0.844,0.548-1.545,0.548
				c-0.68,0-1.18-0.183-1.487-0.542c-0.304-0.355-0.464-0.958-0.487-1.842l-0.098-3.335h-3.25v12.552H334.432z M347.542,229.118
				c-0.84,0-1.434-0.162-1.815-0.498c-0.381-0.336-0.575-0.875-0.575-1.599c0-0.735,0.191-1.274,0.568-1.598
				c0.374-0.322,0.97-0.48,1.822-0.48h10.295c0.877,0,1.479,0.158,1.841,0.482c0.365,0.324,0.549,0.862,0.549,1.596
				c0,0.724-0.19,1.261-0.565,1.597c-0.375,0.337-0.973,0.5-1.826,0.5h-2.723v12.551h2.723c0.84,0,1.434,0.16,1.814,0.488
				c0.382,0.333,0.577,0.861,0.577,1.573c0,0.724-0.196,1.265-0.584,1.606c-0.379,0.336-0.988,0.508-1.806,0.508h-10.295
				c-0.84,0-1.434-0.164-1.815-0.498c-0.381-0.337-0.575-0.88-0.575-1.616c0-0.724,0.191-1.257,0.568-1.583
				c0.376-0.322,0.971-0.478,1.822-0.478h2.723v-12.551H347.542z M365.485,235.359c0-3.199,0.94-5.863,2.794-7.918
				c1.859-2.059,4.274-3.104,7.179-3.104c2.883,0,5.29,1.046,7.154,3.113c1.859,2.059,2.802,4.719,2.802,7.908
				c0,3.212-0.937,5.878-2.784,7.926c-1.853,2.053-4.267,3.096-7.172,3.096c-2.871,0-5.277-1.051-7.153-3.121
				C366.434,241.193,365.485,238.535,365.485,235.359z M391.973,229.118c-0.64,0-1.146-0.185-1.504-0.55
				c-0.358-0.363-0.54-0.884-0.54-1.546c0-0.724,0.193-1.263,0.574-1.604c0.375-0.338,0.963-0.507,1.747-0.507h2.843
				c0.729,0,1.22,0.099,1.499,0.304c0.268,0.197,0.552,0.572,0.869,1.144l6.249,11.382v-8.623h-0.765
				c-0.819,0-1.396-0.164-1.767-0.5c-0.369-0.338-0.555-0.875-0.555-1.597c0-0.72,0.187-1.261,0.555-1.602
				c0.369-0.344,0.947-0.509,1.767-0.509h4.92c0.808,0,1.384,0.166,1.759,0.507c0.377,0.343,0.566,0.882,0.566,1.604
				c0,0.662-0.18,1.181-0.533,1.546c-0.352,0.365-0.855,0.55-1.495,0.55h-0.107v15.549c0,0.612-0.067,0.966-0.217,1.144
				c-0.158,0.189-0.452,0.275-0.925,0.275h-1.732c-0.592,0-1.002-0.062-1.256-0.195c-0.26-0.131-0.482-0.361-0.66-0.684
				l-6.854-12.045v8.507h0.815c0.794,0,1.379,0.162,1.737,0.48c0.365,0.326,0.549,0.859,0.549,1.581
				c0,0.734-0.187,1.276-0.555,1.612c-0.365,0.334-0.947,0.502-1.731,0.502h-4.975c-0.795,0-1.387-0.168-1.755-0.5
				c-0.375-0.335-0.565-0.878-0.565-1.614c0-0.66,0.175-1.173,0.521-1.528c0.348-0.353,0.86-0.533,1.522-0.533h0.088v-12.551
				H391.973z M447.384,236.833c0.175,0,0.403-0.134,0.663-0.388c0.342-0.334,0.635-0.496,0.896-0.496c0.529,0,0.953,0.134,1.266,0.4
				c0.32,0.275,0.482,0.658,0.482,1.142c0,0.123-0.008,0.254-0.027,0.391c-0.02,0.143-0.047,0.267-0.086,0.38l-0.381,1.276
				c-0.079,0.283-0.22,0.498-0.417,0.638c-0.192,0.137-0.441,0.207-0.733,0.207h-1.751v1.788h0.833c0.107,0,0.244,0.008,0.41,0.018
				c0.156,0.012,0.256,0.018,0.301,0.018c0.466,0,0.869,0.176,1.194,0.519c0.319,0.342,0.483,0.779,0.483,1.3
				c0,0.639-0.197,1.111-0.588,1.399c-0.375,0.281-0.965,0.42-1.801,0.42h-7.314c-0.838,0-1.421-0.139-1.787-0.422
				c-0.377-0.289-0.568-0.759-0.568-1.397c0-0.647,0.193-1.128,0.578-1.425c0.369-0.289,0.951-0.429,1.777-0.429h2.342v-1.788
				h-7.801c-0.359,0-0.639-0.115-0.83-0.343c-0.185-0.219-0.278-0.529-0.278-0.919v-1.058c0-0.451,0.033-0.792,0.102-1.046
				c0.066-0.248,0.179-0.517,0.339-0.798l7.28-12.375c0.199-0.332,0.35-0.517,0.489-0.603c0.139-0.09,0.322-0.133,0.559-0.133
				c0.109,0,0.205,0.004,0.283,0.01c0.082,0.006,0.156,0.016,0.219,0.027l3.084,0.539c0.229,0.045,0.406,0.166,0.525,0.363
				c0.111,0.182,0.169,0.42,0.169,0.707v12.081C447.319,236.833,447.349,236.833,447.384,236.833z M458.803,250.09
				c0-0.135,0.004-0.236,0.01-0.302c0.008-0.072,0.016-0.139,0.029-0.203l2.463-9.024c0.115-0.438,0.273-0.724,0.48-0.874
				c0.203-0.147,0.51-0.219,0.936-0.219h4.123c0.223,0,0.4,0.043,0.543,0.133c0.211,0.132,0.254,0.312,0.254,0.439
				c0,0.074-0.016,0.16-0.051,0.273c-0.033,0.096-0.072,0.196-0.121,0.307l-5.188,10.164c-0.09,0.207-0.229,0.381-0.404,0.509
				c-0.182,0.133-0.389,0.201-0.613,0.201c-0.064,0-0.135-0.012-0.217-0.033c-0.057-0.016-0.113-0.029-0.168-0.041l-1.344-0.474
				c-0.227-0.081-0.402-0.194-0.529-0.342C458.871,250.447,458.803,250.274,458.803,250.09z M486.459,236.724
				c-0.456-0.461-1.361-0.722-2.69-0.776c-0.786-0.026-1.308-0.184-1.593-0.485c-0.287-0.296-0.426-0.796-0.426-1.524
				c0-1.015,0.573-1.632,1.655-1.782c0.141-0.014,0.238-0.023,0.305-0.035c1.2-0.166,1.979-0.445,2.316-0.829
				c0.337-0.387,0.509-1.035,0.509-1.93c0-0.765-0.207-1.364-0.614-1.784c-0.853-0.868-2.565-0.839-4.537,0.16
				c-1.103,0.556-1.851,0.826-2.288,0.826c-0.502,0-0.914-0.168-1.222-0.503c-0.303-0.328-0.456-0.748-0.456-1.245
				c0-1.056,0.723-1.963,2.146-2.699c1.384-0.715,3.109-1.078,5.131-1.078c2.047,0,3.708,0.541,4.935,1.606
				c1.233,1.071,1.858,2.514,1.858,4.284c0,1.169-0.29,2.17-0.859,2.979c-0.498,0.708-1.246,1.321-2.23,1.829
				c1.145,0.429,2.025,1.061,2.621,1.885c0.668,0.923,1.004,2.135,1.004,3.603c0,2.209-0.758,3.985-2.256,5.283
				c-1.492,1.29-3.542,1.944-6.094,1.944c-2.055,0-3.781-0.345-5.129-1.027c-1.393-0.703-2.1-1.581-2.1-2.613
				c0-0.615,0.203-1.124,0.604-1.513c0.399-0.386,0.933-0.582,1.581-0.582c0.205,0,0.661,0.082,2.276,0.796
				c2.506,1.103,4.41,0.947,5.414-0.057c0.543-0.544,0.82-1.342,0.82-2.371C487.141,237.975,486.91,237.18,486.459,236.724z
				 M511.6,242.811c-2.209,2.391-5.166,3.605-8.789,3.605c-1.246,0-2.119-0.104-2.668-0.316c-0.743-0.29-0.899-0.789-0.899-1.155
				c0-1.167,0.882-1.801,2.623-1.889c0.7-0.045,1.25-0.092,1.669-0.137c1.77-0.213,3.182-0.867,4.189-1.944
				c0.916-0.974,1.62-2.428,2.1-4.327c-0.469,0.426-1.004,0.771-1.598,1.034c-0.806,0.355-1.682,0.535-2.607,0.535
				c-1.906,0-3.533-0.738-4.837-2.194c-1.296-1.45-1.954-3.259-1.954-5.378c0-2.25,0.74-4.097,2.197-5.484
				c1.457-1.386,3.406-2.089,5.791-2.089c2.498,0,4.498,0.926,5.945,2.75c1.436,1.813,2.163,4.327,2.163,7.476
				C514.925,237.223,513.807,240.424,511.6,242.811z M535.142,244.386c-1.602,1.347-3.945,2.03-6.969,2.03
				c-2.163,0-3.837-0.244-4.97-0.726c-1.188-0.504-1.789-1.269-1.789-2.271c0-0.604,0.217-1.128,0.644-1.562
				c0.428-0.436,0.945-0.656,1.538-0.656c0.355,0,1.085,0.167,2.232,0.511c1.092,0.328,2.039,0.494,2.813,0.494
				c1.248,0,2.226-0.324,2.901-0.961c0.674-0.635,1.016-1.554,1.016-2.731c0-1.146-0.324-2.067-0.961-2.738
				c-0.638-0.667-1.516-1.007-2.611-1.007c-0.708,0-1.566,0.234-2.555,0.693c-1.049,0.491-1.756,0.728-2.158,0.728
				c-0.719,0-1.242-0.208-1.555-0.619c-0.308-0.402-0.456-1.05-0.456-1.979v-8.388c0-0.693,0.099-1.11,0.312-1.315
				c0.205-0.199,0.528-0.294,0.988-0.294h11.352c0.775,0,1.311,0.156,1.633,0.48c0.322,0.322,0.48,0.869,0.48,1.667
				c0,0.789-0.154,1.325-0.471,1.642c-0.316,0.318-0.854,0.472-1.643,0.472h-8.078v3.562c0.666-0.186,1.277-0.328,1.824-0.42
				c0.619-0.105,1.206-0.158,1.747-0.158c2.126,0,3.868,0.71,5.185,2.114c1.309,1.397,1.973,3.257,1.973,5.527
				C537.564,241.044,536.748,243.033,535.142,244.386z M575.077,230.576c0,0.829-0.159,1.418-0.487,1.803
				c-0.332,0.391-0.859,0.587-1.572,0.587c-0.715,0-1.242-0.195-1.566-0.578c-0.324-0.38-0.48-0.974-0.48-1.812v-1.632h-7.678v4.06
				l2.654-0.019c0-0.691,0.164-1.228,0.488-1.591c0.331-0.369,0.824-0.557,1.469-0.557c0.564,0,1.033,0.164,1.4,0.49
				c0.367,0.33,0.554,0.753,0.554,1.259v4.194c0,0.828-0.148,1.411-0.456,1.786c-0.316,0.378-0.82,0.57-1.498,0.57
				c-0.641,0-1.133-0.174-1.465-0.517c-0.328-0.341-0.492-0.855-0.492-1.526v-0.123h-2.654v4.7h0.781c0.816,0,1.393,0.16,1.764,0.49
				c0.367,0.331,0.555,0.859,0.555,1.571c0,0.734-0.188,1.276-0.562,1.614c-0.375,0.336-0.952,0.5-1.756,0.5h-5.184
				c-0.805,0-1.383-0.164-1.757-0.5c-0.374-0.335-0.566-0.88-0.566-1.614c0-0.66,0.177-1.175,0.524-1.528
				c0.347-0.353,0.854-0.533,1.506-0.533h0.105v-12.551h-0.105c-0.645,0-1.146-0.185-1.498-0.55
				c-0.352-0.367-0.532-0.886-0.532-1.546c0-0.722,0.196-1.261,0.575-1.604c0.377-0.338,0.963-0.507,1.748-0.507h14.196
				c0.757,0,1.265,0.119,1.55,0.365c0.297,0.253,0.44,0.718,0.44,1.418V230.576z M599.535,234.254
				c-0.323,0.363-0.842,0.548-1.546,0.548c-0.679,0-1.179-0.183-1.486-0.542c-0.3-0.357-0.461-0.958-0.487-1.842l-0.099-3.335
				h-3.247v12.552h2.721c0.831,0,1.416,0.164,1.791,0.499c0.375,0.338,0.566,0.875,0.566,1.597c0,0.734-0.191,1.276-0.566,1.614
				c-0.375,0.336-0.96,0.5-1.791,0.5h-10.293c-0.82,0-1.402-0.164-1.775-0.5c-0.375-0.337-0.562-0.88-0.562-1.614
				c0-0.736,0.188-1.274,0.555-1.606c0.369-0.33,0.951-0.489,1.783-0.489h2.721v-12.552h-3.248l-0.098,3.763
				c0,0.603-0.176,1.085-0.516,1.433c-0.343,0.348-0.814,0.525-1.409,0.525c-0.698,0-1.226-0.187-1.567-0.554
				c-0.336-0.363-0.508-0.935-0.508-1.698v-0.139l0.188-5.189c0.038-1.108,0.194-1.741,0.494-1.993
				c0.285-0.24,0.82-0.355,1.637-0.355h14.906c0.816,0,1.352,0.115,1.636,0.355c0.3,0.25,0.46,0.882,0.511,1.991l0.172,5.33
				C600.016,233.324,599.855,233.897,599.535,234.254z M621.769,198.158H176.185c-2.091,0-3.787-1.696-3.787-3.788
				c0-2.09,1.696-3.786,3.787-3.786h445.584c2.093,0,3.786,1.695,3.786,3.786C625.555,196.462,623.861,198.158,621.769,198.158z
				 M647.913,143.162c0,2.833-0.129,5.279-0.382,7.272c-0.258,2.008-0.836,4.019-1.727,5.976c-0.893,1.962-2.26,3.87-4.062,5.675
				c-3.856,3.861-9.22,5.816-15.945,5.816h-21.668c-0.156,0-0.284-0.126-0.284-0.283v-58.455c0-0.158,0.128-0.284,0.284-0.284
				h21.668c6.726,0,12.089,1.957,15.945,5.815c1.803,1.807,3.17,3.718,4.062,5.678c0.891,1.957,1.469,3.967,1.727,5.974
				c0.253,1.995,0.382,4.442,0.382,7.274V143.162z M717.666,90.311c-7.158,0-12.971-5.808-12.971-12.965
				c0-7.159,5.812-12.965,12.971-12.965c7.151,0,12.947,5.806,12.947,12.965C730.613,84.503,724.817,90.311,717.666,90.311z"/>
			<path fill="#FFFFFF" d="M631.516,125.404c-1.417-2.104-3.661-3.168-6.684-3.168h-6.064v32.308h6.064
				c3.022,0,5.271-1.063,6.68-3.162c0.438-0.666,0.74-1.331,0.904-1.977c0.169-0.66,0.31-1.823,0.415-3.456
				c0.109-1.653,0.16-4.196,0.16-7.559c0-4.77-0.099-7.961-0.297-9.483C632.498,127.42,632.101,126.243,631.516,125.404z"/>
			<polygon fill="#FFFFFF" points="246.034,132.25 241.185,146.646 250.586,146.646 			"/>
			<path fill="#FFFFFF" d="M405.182,379.252c-2.47-2.482-6.836-2.482-9.305,0l-39.292,39.603c-2.549,2.573-2.525,6.718,0.04,9.261
				c2.571,2.553,6.716,2.537,9.265-0.039l34.633-34.912l34.653,34.912c1.276,1.292,2.965,1.938,4.639,1.938
				c1.678,0,3.348-0.634,4.625-1.898c2.561-2.543,2.578-6.688,0.023-9.261L405.182,379.252z"/>
			<path fill="#FFFFFF" d="M506.606,226.813c-0.897,0-1.604,0.316-2.16,0.964c-0.556,0.65-0.84,1.517-0.84,2.572
				c0,1.094,0.302,1.993,0.892,2.676c0.582,0.675,1.339,1.019,2.247,1.019c0.913,0,1.649-0.325,2.252-0.988
				c0.601-0.66,0.904-1.507,0.904-2.516c0-1.114-0.312-2.023-0.931-2.707C508.359,227.156,507.564,226.813,506.606,226.813z"/>
			<path fill="#FFFFFF" d="M378.816,240.285c0.825-1.169,1.245-2.828,1.245-4.926c0-2.086-0.417-3.735-1.237-4.901
				c-0.818-1.159-1.918-1.721-3.366-1.721c-1.435,0-2.53,0.562-3.348,1.721c-0.822,1.163-1.237,2.813-1.237,4.901
				c0,2.086,0.419,3.741,1.246,4.916c0.824,1.171,1.917,1.741,3.339,1.741C376.894,242.017,377.991,241.45,378.816,240.285z"/>
			<path fill="#FFFFFF" d="M405.182,321.941c-2.47-2.484-6.836-2.484-9.305,0l-39.292,39.607c-2.549,2.566-2.525,6.72,0.04,9.263
				c2.571,2.539,6.716,2.531,9.265-0.043l34.633-34.917l34.653,34.917c1.276,1.292,2.965,1.932,4.639,1.932
				c1.678,0,3.348-0.624,4.625-1.889c2.561-2.543,2.578-6.696,0.023-9.263L405.182,321.941z"/>
			<path fill="#FFFFFF" d="M405.182,350.592c-2.47-2.475-6.836-2.475-9.305,0l-39.292,39.617c-2.549,2.553-2.525,6.704,0.04,9.247
				c2.571,2.549,6.716,2.529,9.265-0.035l34.633-34.92l34.653,34.92c1.276,1.288,2.965,1.938,4.639,1.938
				c1.678,0,3.348-0.624,4.625-1.902c2.561-2.543,2.578-6.694,0.023-9.247L405.182,350.592z"/>
			<polygon fill="#FFFFFF" points="304.816,229.512 302.569,236.054 307.063,236.054 			"/>
			<path fill="#FFFFFF" d="M400.523,405.96c-3.609,0-6.539,2.929-6.539,6.546v50.57c0,3.619,2.93,6.561,6.539,6.561
				c3.62,0,6.551-2.941,6.551-6.561v-50.57C407.074,408.889,404.143,405.96,400.523,405.96z"/>
			<polygon fill="#FFFFFF" points="443.156,236.799 443.156,228.121 438.229,236.799 			"/>
		</g>
	</g>
</g>
<g>
</g>
<g>
</g>
<g>
</g>
<g>
</g>
<g>
</g>
<g>
</g>
<g>
</g>
<g>
</g>
<g>
</g>
<g>
</g>
<g>
</g>
</svg>
