<?xml version="1.0" encoding="iso-8859-1"?>
<!-- Generator: Adobe Illustrator 16.2.1, SVG Export Plug-In . SVG Version: 6.00 Build 0)  -->
<!DOCTYPE svg PUBLIC "-//W3C//DTD SVG 1.1//EN" "http://www.w3.org/Graphics/SVG/1.1/DTD/svg11.dtd">
<svg version="1.1" id="Layer_1" xmlns="http://www.w3.org/2000/svg" xmlns:xlink="http://www.w3.org/1999/xlink" x="0px" y="0px"
	 width="31.5px" height="31.5px" viewBox="-5.25 -5.25 31.5 31.5" style="enable-background:new -5.25 -5.25 31.5 31.5;"
	 xml:space="preserve">
<g>
	<g style="opacity:0.2;">
		<path d="M26.25,11.25c0-8.284-6.715-15-15-15c-8.284,0-15,6.716-15,15c0,8.285,6.716,15,15,15
			C19.535,26.25,26.25,19.535,26.25,11.25z M7.853,7.095c0-0.824,0.585-1.162,1.299-0.75l7.196,4.155c0.715,0.412,0.715,1.087,0,1.5
			l-7.196,4.154c-0.715,0.413-1.299,0.076-1.299-0.75V7.095z"/>
	</g>
	<g>
		<path style="fill:#FFFFFF;" d="M24.75,9.75c0-8.284-6.715-15-15-15c-8.284,0-15,6.716-15,15c0,8.285,6.716,15,15,15
			C18.035,24.75,24.75,18.035,24.75,9.75z M6.353,5.595c0-0.824,0.585-1.162,1.299-0.75L14.848,9c0.715,0.412,0.715,1.088,0,1.5
			l-7.196,4.154c-0.715,0.413-1.299,0.076-1.299-0.75V5.595z"/>
	</g>
</g>
</svg>
