<?xml version="1.0" encoding="utf-8"?>
<!-- Generator: Adobe Illustrator 16.0.0, SVG Export Plug-In . SVG Version: 6.00 Build 0)  -->
<!DOCTYPE svg PUBLIC "-//W3C//DTD SVG 1.1//EN" "http://www.w3.org/Graphics/SVG/1.1/DTD/svg11.dtd">
<svg version="1.1" id="Layer_1" xmlns="http://www.w3.org/2000/svg" xmlns:xlink="http://www.w3.org/1999/xlink" x="0px" y="0px"
	 width="21px" height="21px" viewBox="0 0 21 21" enable-background="new 0 0 21 21" xml:space="preserve">
<g>
	<g opacity="0.2">
		<path d="M11,1C5.477,1,1,5.477,1,11c0,5.523,4.477,10,10,10s10-4.477,10-10C21,5.477,16.523,1,11,1z M8.23,13.265
			c-0.55,0-0.775-0.39-0.5-0.866l2.77-4.797c0.275-0.477,0.725-0.477,1,0l2.77,4.797c0.275,0.477,0.05,0.866-0.5,0.866H8.23z"/>
	</g>
	<g>
		<path fill="#FFFFFF" d="M10,0C4.477,0,0,4.477,0,10c0,5.523,4.477,10,10,10s10-4.477,10-10C20,4.477,15.523,0,10,0z M7.23,12.265
			c-0.55,0-0.775-0.39-0.5-0.866L9.5,6.602c0.275-0.477,0.725-0.477,1,0l2.77,4.797c0.275,0.477,0.05,0.866-0.5,0.866H7.23z"/>
	</g>
</g>
</svg>
