<?xml version="1.0" encoding="utf-8"?>
<!-- Generator: Adobe Illustrator 16.0.0, SVG Export Plug-In . SVG Version: 6.00 Build 0)  -->
<!DOCTYPE svg PUBLIC "-//W3C//DTD SVG 1.1//EN" "http://www.w3.org/Graphics/SVG/1.1/DTD/svg11.dtd">
<svg version="1.1" id="Layer_1" xmlns="http://www.w3.org/2000/svg" xmlns:xlink="http://www.w3.org/1999/xlink" x="0px" y="0px"
	 width="21px" height="21px" viewBox="0 0 21 21" enable-background="new 0 0 21 21" xml:space="preserve">
<g>
	<g opacity="0.2">
		<path d="M11,21c5.523,0,10-4.478,10-10c0-5.523-4.477-10-10-10S1,5.477,1,11C1,16.522,5.477,21,11,21z M13.77,8.735
			c0.55,0,0.775,0.39,0.5,0.866l-2.77,4.797c-0.275,0.477-0.725,0.477-1,0L7.73,9.602c-0.275-0.477-0.05-0.866,0.5-0.866H13.77z"/>
	</g>
	<g>
		<path fill="#FFFFFF" d="M10,20c5.523,0,10-4.478,10-10c0-5.523-4.477-10-10-10S0,4.477,0,10C0,15.522,4.477,20,10,20z
			 M12.77,7.735c0.55,0,0.775,0.39,0.5,0.866l-2.77,4.797c-0.275,0.477-0.725,0.477-1,0L6.73,8.602
			c-0.275-0.477-0.05-0.866,0.5-0.866H12.77z"/>
	</g>
</g>
</svg>
