<?xml version="1.0" encoding="utf-8"?>
<!-- Generator: Adobe Illustrator 16.0.0, SVG Export Plug-In . SVG Version: 6.00 Build 0)  -->
<!DOCTYPE svg PUBLIC "-//W3C//DTD SVG 1.1//EN" "http://www.w3.org/Graphics/SVG/1.1/DTD/svg11.dtd">
<svg version="1.1" id="Layer_1" xmlns="http://www.w3.org/2000/svg" xmlns:xlink="http://www.w3.org/1999/xlink" x="0px" y="0px"
	 width="21px" height="21px" viewBox="0 0 21 21" enable-background="new 0 0 21 21" xml:space="preserve">
<g>
	<g opacity="0.2">
		<path d="M21,11c0-5.523-4.477-10-10-10C5.477,1,1,5.477,1,11c0,5.523,4.477,10,10,10C16.523,21,21,16.523,21,11z M8.735,8.23
			c0-0.55,0.39-0.775,0.866-0.5l4.797,2.77c0.477,0.275,0.477,0.725,0,1l-4.797,2.77c-0.477,0.275-0.866,0.05-0.866-0.5V8.23z"/>
	</g>
	<g>
		<path fill="#FFFFFF" d="M20,10c0-5.523-4.477-10-10-10C4.477,0,0,4.477,0,10c0,5.523,4.477,10,10,10C15.523,20,20,15.523,20,10z
			 M7.735,7.23c0-0.55,0.39-0.775,0.866-0.5l4.797,2.77c0.477,0.275,0.477,0.725,0,1l-4.797,2.77c-0.477,0.275-0.866,0.05-0.866-0.5
			V7.23z"/>
	</g>
</g>
</svg>
