<?xml version="1.0" encoding="utf-8"?>
<!-- Generator: Adobe Illustrator 16.0.0, SVG Export Plug-In . SVG Version: 6.00 Build 0)  -->
<!DOCTYPE svg PUBLIC "-//W3C//DTD SVG 1.1//EN" "http://www.w3.org/Graphics/SVG/1.1/DTD/svg11.dtd">
<svg version="1.1" id="Layer_1" xmlns="http://www.w3.org/2000/svg" xmlns:xlink="http://www.w3.org/1999/xlink" x="0px" y="0px"
	 width="21px" height="21px" viewBox="0 0 21 21" enable-background="new 0 0 21 21" xml:space="preserve">
<g>
	<g opacity="0.2">
		<path d="M1,11c0,5.523,4.477,10,10,10c5.523,0,10-4.477,10-10c0-5.523-4.477-10-10-10C5.477,1,1,5.477,1,11z M13.265,13.77
			c0,0.55-0.39,0.775-0.866,0.5L7.602,11.5c-0.477-0.275-0.477-0.725,0-1l4.797-2.77c0.477-0.275,0.866-0.05,0.866,0.5V13.77z"/>
	</g>
	<g>
		<path fill="#FFFFFF" d="M0,10c0,5.523,4.477,10,10,10c5.523,0,10-4.477,10-10c0-5.523-4.477-10-10-10C4.477,0,0,4.477,0,10z
			 M12.265,12.77c0,0.55-0.39,0.775-0.866,0.5L6.602,10.5c-0.477-0.275-0.477-0.725,0-1l4.797-2.77
			c0.477-0.275,0.866-0.05,0.866,0.5V12.77z"/>
	</g>
</g>
</svg>
