<?xml version="1.0" encoding="iso-8859-1"?>
<!-- Generator: Adobe Illustrator 16.2.1, SVG Export Plug-In . SVG Version: 6.00 Build 0)  -->
<!DOCTYPE svg PUBLIC "-//W3C//DTD SVG 1.1//EN" "http://www.w3.org/Graphics/SVG/1.1/DTD/svg11.dtd">
<svg version="1.1" id="Layer_1" xmlns="http://www.w3.org/2000/svg" xmlns:xlink="http://www.w3.org/1999/xlink" x="0px" y="0px"
	 width="31.5px" height="31.5px" viewBox="-5.25 -5.25 31.5 31.5" style="enable-background:new -5.25 -5.25 31.5 31.5;"
	 xml:space="preserve">
<g>
	<g style="opacity:0.2;">
		<path d="M-3.75,11.25c0,8.285,6.716,15,15,15c8.285,0,15-6.715,15-15c0-8.284-6.715-15-15-15C2.966-3.75-3.75,2.966-3.75,11.25z
			 M14.648,15.404c0,0.826-0.586,1.163-1.301,0.75L6.153,12c-0.716-0.413-0.716-1.088,0-1.5l7.194-4.155
			c0.717-0.412,1.301-0.074,1.301,0.75V15.404z"/>
	</g>
	<g>
		<path style="fill:#FFFFFF;" d="M-5.25,9.75c0,8.285,6.716,15,15,15c8.285,0,15-6.715,15-15c0-8.284-6.715-15-15-15
			C1.466-5.25-5.25,1.466-5.25,9.75z M13.148,13.904c0,0.826-0.586,1.163-1.301,0.75L4.653,10.5c-0.716-0.412-0.716-1.088,0-1.5
			l7.194-4.155c0.717-0.412,1.301-0.074,1.301,0.75V13.904z"/>
	</g>
</g>
</svg>
