<?xml version="1.0" encoding="iso-8859-1"?>
<!-- Generator: Adobe Illustrator 16.2.1, SVG Export Plug-In . SVG Version: 6.00 Build 0)  -->
<!DOCTYPE svg PUBLIC "-//W3C//DTD SVG 1.1//EN" "http://www.w3.org/Graphics/SVG/1.1/DTD/svg11.dtd">
<svg version="1.1" id="Layer_1" xmlns="http://www.w3.org/2000/svg" xmlns:xlink="http://www.w3.org/1999/xlink" x="0px" y="0px"
	 width="31.5px" height="31.5px" viewBox="-5.25 -5.25 31.5 31.5" style="enable-background:new -5.25 -5.25 31.5 31.5;"
	 xml:space="preserve">
<g>
	<g style="opacity:0.2;">
		<path d="M11.25-3.75c-8.284,0-15,6.716-15,15c0,8.285,6.716,15,15,15c8.285,0,15-6.715,15-15C26.25,2.966,19.535-3.75,11.25-3.75z
			 M7.095,14.648c-0.824,0-1.162-0.586-0.75-1.301L10.5,6.153c0.412-0.716,1.087-0.716,1.5,0l4.154,7.194
			c0.413,0.717,0.076,1.301-0.75,1.301H7.095z"/>
	</g>
	<g>
		<path style="fill:#FFFFFF;" d="M9.75-5.25c-8.284,0-15,6.716-15,15c0,8.285,6.716,15,15,15c8.285,0,15-6.715,15-15
			C24.75,1.466,18.035-5.25,9.75-5.25z M5.595,13.148c-0.824,0-1.162-0.586-0.75-1.301L9,4.653c0.412-0.716,1.088-0.716,1.5,0
			l4.154,7.194c0.413,0.717,0.076,1.301-0.75,1.301H5.595z"/>
	</g>
</g>
</svg>
