<?xml version="1.0" encoding="iso-8859-1"?>
<!-- Generator: Adobe Illustrator 16.2.1, SVG Export Plug-In . SVG Version: 6.00 Build 0)  -->
<!DOCTYPE svg PUBLIC "-//W3C//DTD SVG 1.1//EN" "http://www.w3.org/Graphics/SVG/1.1/DTD/svg11.dtd">
<svg version="1.1" id="Layer_1" xmlns="http://www.w3.org/2000/svg" xmlns:xlink="http://www.w3.org/1999/xlink" x="0px" y="0px"
	 width="31.5px" height="31.5px" viewBox="-5.25 -5.25 31.5 31.5" style="enable-background:new -5.25 -5.25 31.5 31.5;"
	 xml:space="preserve">
<g>
	<g style="opacity:0.2;">
		<path d="M11.25,26.25c8.285,0,15-6.718,15-15c0-8.284-6.715-15-15-15c-8.284,0-15,6.716-15,15
			C-3.75,19.532,2.966,26.25,11.25,26.25z M15.404,7.853c0.826,0,1.163,0.585,0.75,1.299L12,16.348c-0.413,0.715-1.088,0.715-1.5,0
			L6.345,9.153c-0.412-0.716-0.074-1.3,0.75-1.3L15.404,7.853L15.404,7.853z"/>
	</g>
	<g>
		<path style="fill:#FFFFFF;" d="M9.75,24.75c8.285,0,15-6.718,15-15c0-8.284-6.715-15-15-15c-8.284,0-15,6.716-15,15
			C-5.25,18.032,1.466,24.75,9.75,24.75z M13.904,6.353c0.826,0,1.163,0.585,0.75,1.299L10.5,14.848c-0.412,0.715-1.088,0.715-1.5,0
			L4.845,7.653c-0.412-0.716-0.074-1.3,0.75-1.3L13.904,6.353L13.904,6.353z"/>
	</g>
</g>
</svg>
