<?xml version="1.0" encoding="utf-8"?>
<!-- Generator: Adobe Illustrator 16.0.0, SVG Export Plug-In . SVG Version: 6.00 Build 0)  -->
<!DOCTYPE svg PUBLIC "-//W3C//DTD SVG 1.1//EN" "http://www.w3.org/Graphics/SVG/1.1/DTD/svg11.dtd">
<svg version="1.1" id="Layer_1" xmlns="http://www.w3.org/2000/svg" xmlns:xlink="http://www.w3.org/1999/xlink" x="0px" y="0px"
	 width="206px" height="594.455px" viewBox="0 0 206 594.455" enable-background="new 0 0 206 594.455" xml:space="preserve">
<g>
	<g opacity="0.2">
		<path d="M59.715,463.078c0.264,0,0.552-0.045,0.855-0.137c1.236-0.369,2.679-1.537,2.679-3.619v-16.357
			c0-1.271-0.517-1.916-1.535-1.916c-0.272,0-0.57,0.049-0.884,0.143c-1.294,0.387-2.678,1.531-2.678,3.572v16.355
			C58.152,462.014,58.423,463.078,59.715,463.078z"/>
		<path d="M52.203,407.012c-0.379,0-0.84,0.064-1.37,0.189c-0.653,0.158-1.305,0.311-1.958,0.457v8.729
			c0.655-0.146,1.309-0.301,1.963-0.463c2.739-0.666,3.221-2.234,3.221-5.285C54.059,407.855,53.625,407.012,52.203,407.012z"/>
		<path d="M52.276,393.682c0.134,0,0.279-0.018,0.431-0.057c0.753-0.189,1.557-0.822,1.557-2.033v-10.346
			c0-0.746-0.292-1.109-0.893-1.109c-0.138,0-0.287,0.021-0.443,0.059c-0.751,0.191-1.555,0.818-1.555,2.012v10.346
			C51.373,393.301,51.677,393.682,52.276,393.682z"/>
		<path d="M4.401-2v594.455l43.968-52.238c2.229-2.646,6.223-2.992,8.872-0.764l22.082,18.584l46.742-48.941
			c2.385-2.504,6.211-2.422,8.492,0.184l69.043,78.787V-2H4.401z M169.6,420.727c0-0.225,0.166-0.416,0.391-0.449
			c1.459-0.213,2.957-0.404,4.451-0.564c0.133-0.01,0.254,0.027,0.354,0.113c0.094,0.084,0.146,0.209,0.146,0.336v1.393
			c0,0.773,0.266,2.646,2.643,2.432c2.541-0.186,2.807-1.475,2.807-4.367c0-3.137-0.314-3.467-2.256-4.111
			c-1.059-0.357-2.113-0.695-3.166-1.02c-4.277-1.293-5.15-4.055-5.15-7.801c0-5.547,3.152-9.385,8.027-9.781
			c0.209-0.016,0.414-0.023,0.611-0.023c4.492,0,7.271,3.727,7.271,7.176v2.174c0,0.252-0.197,0.453-0.447,0.453
			c-1.441,0.004-2.928,0.047-4.416,0.119c-0.123,0.01-0.248-0.039-0.338-0.123c-0.088-0.086-0.137-0.205-0.137-0.33v-0.998
			c0-1.211-0.326-3.268-2.646-3.092c-1.107,0.092-2.586,0.586-2.586,3.826c0,2.326,0.178,2.836,2.207,3.463
			c1.137,0.359,2.275,0.729,3.408,1.125c4.168,1.391,4.955,4.16,4.955,8.783c0,6.246-2.639,9.475-8.072,9.867
			c-0.258,0.021-0.516,0.029-0.77,0.029c-2.043,0-3.891-0.676-5.201-1.904c-1.365-1.275-2.086-3.029-2.086-5.07V420.727z
			 M150.543,402.631c0-0.203,0.137-0.381,0.33-0.434c1.426-0.402,2.848-0.783,4.273-1.148c0.219-0.057,0.451,0.062,0.533,0.273
			c1.973,4.988,3.939,10.016,5.912,15.082v-16.486c0-0.215,0.152-0.4,0.359-0.443c1.482-0.309,2.971-0.596,4.453-0.854
			c0.127-0.021,0.268,0.012,0.367,0.1c0.105,0.084,0.162,0.213,0.162,0.346v30.975c0,0.221-0.158,0.406-0.375,0.445
			c-1.389,0.24-2.775,0.508-4.164,0.795c-0.215,0.047-0.432-0.074-0.512-0.277c-2-5.076-4-10.104-6.002-15.094v16.508
			c0,0.209-0.137,0.387-0.34,0.439c-1.475,0.375-2.947,0.77-4.422,1.184c-0.043,0.01-0.084,0.016-0.125,0.016
			c-0.098,0-0.193-0.031-0.273-0.092c-0.113-0.086-0.178-0.221-0.178-0.361V402.631z M141.535,405.387
			c0-0.195,0.125-0.369,0.309-0.432c1.482-0.486,2.965-0.957,4.449-1.414c0.139-0.041,0.283-0.014,0.4,0.07
			c0.115,0.086,0.184,0.221,0.184,0.365v30.973c0,0.197-0.129,0.373-0.32,0.432c-1.479,0.453-2.953,0.924-4.428,1.408
			c-0.049,0.014-0.096,0.021-0.145,0.021c-0.09,0-0.186-0.027-0.262-0.086c-0.119-0.086-0.188-0.221-0.188-0.365V405.387z
			 M128.465,409.734c1.234-0.473,2.467-0.938,3.703-1.389c0.123-0.045,0.254-0.037,0.367,0.021c0.115,0.062,0.197,0.17,0.229,0.293
			c2.307,9.475,4.615,18.977,6.92,28.514c0.053,0.227-0.076,0.459-0.295,0.533c-1.48,0.504-2.955,1.023-4.43,1.557
			c-0.125,0.047-0.262,0.035-0.375-0.031c-0.113-0.062-0.197-0.174-0.225-0.303l-1.193-5.672c-1.771,0.65-3.541,1.316-5.312,1.996
			l-1.26,6.91c-0.029,0.154-0.135,0.283-0.283,0.342c-1.475,0.574-2.953,1.156-4.434,1.748c-0.053,0.023-0.109,0.031-0.166,0.031
			c-0.105,0-0.207-0.035-0.291-0.105c-0.129-0.105-0.186-0.275-0.152-0.438c2.305-11.246,4.611-22.475,6.916-33.676
			C128.213,409.916,128.32,409.787,128.465,409.734z M123.959,411.691c0.127,0.082,0.201,0.225,0.201,0.375v4.178
			c0,0.182-0.113,0.35-0.287,0.42c-1.615,0.639-3.23,1.285-4.846,1.941v26.492c0,0.182-0.111,0.35-0.281,0.418
			c-1.479,0.6-2.957,1.207-4.436,1.816c-0.059,0.021-0.115,0.033-0.176,0.033c-0.086,0-0.174-0.025-0.25-0.076
			c-0.125-0.084-0.199-0.223-0.199-0.375v-26.121c-1.502,0.619-3.004,1.248-4.506,1.873c-0.139,0.057-0.299,0.043-0.428-0.043
			c-0.125-0.082-0.201-0.223-0.201-0.375v-4.176c0-0.184,0.109-0.348,0.281-0.418c4.66-1.945,9.668-4.02,14.707-6.008
			C123.68,411.588,123.838,411.605,123.959,411.691z M95.4,386.877c0-0.184,0.111-0.35,0.28-0.42c1.419-0.59,2.841-1.18,4.261-1.773
			c0.233-0.096,0.495,0.012,0.592,0.24l5.915,14.004V382.26c0-0.186,0.111-0.348,0.277-0.418l4.439-1.854
			c0.137-0.057,0.301-0.041,0.426,0.043s0.201,0.223,0.201,0.377v30.973c0,0.184-0.111,0.348-0.277,0.418l-4.178,1.74
			c-0.229,0.096-0.49-0.01-0.592-0.236l-6.001-13.961v16.66c0,0.182-0.111,0.348-0.28,0.416l-4.438,1.85
			c-0.055,0.023-0.115,0.033-0.174,0.033c-0.087,0-0.175-0.025-0.251-0.074C95.476,418.143,95.4,418,95.4,417.85V386.877z
			 M95.975,423.514c1.971,4.678,3.944,9.348,5.915,14.016v-16.668c0-0.184,0.111-0.348,0.279-0.418l4.437-1.859
			c0.137-0.061,0.299-0.045,0.424,0.041c0.127,0.084,0.201,0.225,0.201,0.377v30.973c0,0.186-0.105,0.348-0.275,0.418l-4.176,1.75
			c-0.231,0.094-0.493-0.01-0.591-0.236l-6.004-13.971v16.654c0,0.184-0.11,0.35-0.28,0.42c-1.479,0.613-2.959,1.225-4.439,1.826
			c-0.056,0.023-0.113,0.033-0.171,0.033c-0.089,0-0.178-0.025-0.253-0.074c-0.125-0.086-0.2-0.227-0.2-0.377v-30.973
			c0-0.184,0.11-0.352,0.281-0.42c1.42-0.58,2.842-1.164,4.262-1.754C95.609,423.182,95.878,423.283,95.975,423.514z
			 M92.969,387.797c0.126,0.082,0.201,0.225,0.201,0.375v4.176c0,0.184-0.111,0.35-0.282,0.42c-2.834,1.162-5.67,2.309-8.505,3.428
			v8.117c2.344-0.928,4.688-1.869,7.031-2.828c0.141-0.055,0.298-0.041,0.424,0.043c0.126,0.084,0.201,0.227,0.201,0.375v4.178
			c0,0.184-0.111,0.35-0.282,0.418c-2.458,1.008-4.917,1.996-7.375,2.963v8.121c2.72-1.078,5.441-2.178,8.162-3.293
			c0.139-0.057,0.301-0.041,0.424,0.043c0.126,0.084,0.201,0.227,0.201,0.375v4.439c0,0.184-0.111,0.348-0.281,0.418
			c-5.079,2.086-9.285,3.756-13.236,5.258c-0.052,0.02-0.106,0.029-0.161,0.029c-0.091,0-0.181-0.025-0.256-0.08
			c-0.124-0.082-0.196-0.223-0.196-0.371v-30.975c0-0.188,0.116-0.355,0.292-0.422c3.944-1.5,8.143-3.17,13.213-5.252
			C92.684,387.697,92.843,387.713,92.969,387.797z M74.895,407.928c0.137-0.055,0.293-0.031,0.416,0.053
			c0.121,0.084,0.193,0.223,0.193,0.373v4.174c0,0.191-0.119,0.359-0.297,0.424c-2.533,0.93-5.008,1.799-7.359,2.584v8.137
			c2.613-0.879,5.295-1.828,8.177-2.893c0.139-0.053,0.293-0.029,0.415,0.053c0.123,0.084,0.195,0.225,0.195,0.371v4.439
			c0,0.188-0.118,0.357-0.297,0.422c-4.753,1.758-9.086,3.242-13.247,4.539c-0.043,0.016-0.088,0.021-0.133,0.021
			c-0.096,0-0.19-0.031-0.269-0.088c-0.116-0.086-0.184-0.221-0.184-0.365v-30.973c0-0.199,0.128-0.375,0.319-0.432
			c4.143-1.293,8.462-2.771,13.201-4.523c0.139-0.051,0.293-0.031,0.415,0.053c0.123,0.086,0.195,0.225,0.195,0.373v4.176
			c0,0.189-0.118,0.359-0.297,0.424c-2.995,1.107-5.776,2.092-8.49,3v8.135C70.104,409.646,72.472,408.812,74.895,407.928z
			 M72.043,432.697c0-0.191,0.121-0.365,0.302-0.428c1.476-0.523,2.954-1.061,4.43-1.613c0.14-0.051,0.294-0.031,0.417,0.053
			c0.121,0.086,0.195,0.225,0.195,0.373v23.578c0,1.705,0.775,2.277,2.125,1.764c1.534-0.586,2.449-2.025,2.449-3.854v-23.578
			c0-0.186,0.115-0.352,0.29-0.422c1.477-0.574,2.955-1.158,4.431-1.75c0.14-0.057,0.298-0.039,0.423,0.047
			c0.124,0.084,0.199,0.225,0.199,0.373v24.014c0,4.193-3.35,8.883-7.469,10.453c-0.917,0.35-1.82,0.529-2.68,0.529
			c-3.058,0-5.113-2.221-5.113-5.525V432.697z M71.275,371.322c0-0.193,0.122-0.365,0.302-0.428
			c2.671-0.941,5.404-1.949,8.353-3.074c0.14-0.055,0.295-0.039,0.418,0.049c0.124,0.084,0.197,0.227,0.197,0.375v2.639
			c0,0.189-0.117,0.357-0.292,0.424c-1.756,0.67-3.511,1.328-5.267,1.967v4.789c1.41-0.516,2.818-1.043,4.229-1.576
			c0.138-0.057,0.295-0.039,0.418,0.049c0.123,0.084,0.196,0.223,0.196,0.373v2.641c0,0.188-0.117,0.357-0.292,0.424
			c-1.518,0.576-3.033,1.141-4.551,1.695v4.787c1.648-0.604,3.296-1.221,4.944-1.852c0.139-0.053,0.294-0.033,0.417,0.049
			c0.124,0.084,0.197,0.227,0.197,0.375v2.805c0,0.188-0.117,0.357-0.291,0.424c-2.957,1.131-5.696,2.137-8.376,3.082
			c-0.048,0.02-0.1,0.027-0.15,0.027c-0.093,0-0.185-0.029-0.261-0.084c-0.121-0.084-0.192-0.225-0.192-0.371V371.322z
			 M59.274,389.283c0-0.201,0.133-0.381,0.325-0.436c0.934-0.277,1.867-0.559,2.801-0.846c0.139-0.047,0.288-0.018,0.402,0.066
			c0.117,0.084,0.185,0.221,0.185,0.365v0.879c0.001,0.938,0.489,1.248,1.391,0.955c1.558-0.502,1.72-1.344,1.72-3.145
			c0-1.898-0.113-1.908-1.205-1.992c-0.677-0.061-1.349-0.125-2.018-0.191c-3.051-0.299-3.463-2.473-3.463-4.555
			c0-3.482,1.966-6.271,5.129-7.285c0.575-0.182,1.133-0.273,1.663-0.273c2.09,0,3.607,1.508,3.607,3.586v1.373
			c0,0.193-0.124,0.367-0.306,0.43c-0.937,0.32-1.875,0.635-2.811,0.947c-0.142,0.037-0.291,0.02-0.408-0.064
			c-0.119-0.086-0.189-0.223-0.189-0.367v-0.633c0-1.195-0.464-1.59-1.39-1.291c-1.08,0.346-1.583,1.199-1.583,2.697
			c0,1.449,0.087,1.574,1.178,1.658c0.715,0.059,1.427,0.111,2.141,0.16c3.108,0.146,3.367,2.367,3.367,4.828
			c0,4.006-1.783,6.701-5.157,7.789c-0.579,0.186-1.146,0.275-1.685,0.275c-1.078,0-2.001-0.367-2.669-1.064
			c-0.671-0.699-1.026-1.678-1.026-2.824V389.283z M47.661,382.854c0-3.471,2.615-5.721,5.045-6.344
			c0.462-0.113,0.922-0.172,1.37-0.172c1.887,0,3.9,1.086,3.9,4.143v10.344c0,3.428-2.54,5.857-5.048,6.486
			c-0.431,0.109-0.866,0.164-1.292,0.164c-1.833,0-3.975-1.119-3.975-4.275V382.854z M35.824,380.318c0-0.23,0.17-0.422,0.396-0.451
			c0.931-0.121,1.864-0.252,2.794-0.395c0.134-0.012,0.264,0.018,0.364,0.107c0.101,0.082,0.158,0.211,0.158,0.342v7.865
			c0.853-0.133,1.708-0.275,2.56-0.428v-8.014c0-0.217,0.158-0.406,0.373-0.445c0.933-0.166,1.867-0.344,2.798-0.531
			c0.134-0.029,0.272,0.008,0.376,0.094s0.166,0.215,0.166,0.352v19.588c0,0.217-0.153,0.402-0.364,0.447
			c-0.938,0.188-1.876,0.363-2.815,0.533c-0.133,0.018-0.269-0.012-0.371-0.096c-0.104-0.088-0.163-0.217-0.163-0.35v-8.18
			c-0.853,0.15-1.707,0.291-2.56,0.422v8.332c0,0.225-0.164,0.414-0.385,0.447c-0.938,0.145-1.878,0.275-2.817,0.396
			c-0.019,0.004-0.038,0.004-0.058,0.004c-0.109,0-0.216-0.039-0.299-0.111c-0.098-0.088-0.155-0.211-0.155-0.342V380.318z
			 M23.089,380.064c-0.121,0-0.235-0.047-0.32-0.133c-0.085-0.084-0.134-0.199-0.134-0.32v-3.303c0-0.248,0.203-0.451,0.452-0.451
			c3.741-0.018,7.637-0.256,11.579-0.711c0.13-0.008,0.257,0.027,0.354,0.113c0.095,0.084,0.151,0.209,0.151,0.338v3.303
			c0,0.23-0.172,0.426-0.401,0.449c-1.22,0.141-2.44,0.262-3.659,0.363v20.775c0,0.236-0.182,0.434-0.417,0.453
			c-1.175,0.094-2.352,0.164-3.526,0.217c-0.007,0-0.013,0-0.02,0c-0.117,0-0.229-0.045-0.314-0.123
			c-0.088-0.086-0.139-0.205-0.139-0.33v-20.721C25.472,380.033,24.261,380.061,23.089,380.064L23.089,380.064z M24.297,413.459
			c0-5.275,4.069-8.076,7.85-8.445c0.271-0.023,0.542-0.037,0.81-0.037c3.288,0,7.125,1.867,7.125,7.125v1.568
			c0,0.223-0.163,0.414-0.383,0.445c-1.478,0.232-2.976,0.441-4.454,0.617c-0.133,0.021-0.257-0.027-0.354-0.111
			c-0.097-0.088-0.153-0.209-0.153-0.34v-1.566c0-1.623-0.965-2.494-2.505-2.365c-1.622,0.152-2.591,1.244-2.591,2.92v16.355
			c0,1.648,0.988,2.598,2.507,2.445c1.195-0.109,2.589-0.961,2.589-3v-5.32c-1.01,0.117-2.021,0.219-3.03,0.309
			c-0.126,0.01-0.254-0.033-0.345-0.119c-0.094-0.084-0.148-0.203-0.148-0.334v-3.914c0-0.234,0.18-0.43,0.414-0.449
			c2.597-0.23,5.265-0.557,7.93-0.975c0.14-0.021,0.265,0.018,0.366,0.102c0.1,0.088,0.158,0.213,0.158,0.346v9.744
			c0,5.359-4.046,8.613-7.852,8.951c-0.239,0.023-0.483,0.035-0.726,0.035c-3.581,0-7.207-2.621-7.207-7.631V413.459z
			 M49.563,475.986c0,0.053-0.035,0.096-0.086,0.109c-1.756,0.404-3.549,0.783-5.33,1.125c-0.033,0.006-0.066-0.004-0.093-0.023
			c-0.024-0.021-0.04-0.053-0.04-0.086V454.92c-1.758,5.652-3.493,11.207-5.161,16.512c-0.013,0.041-0.048,0.07-0.089,0.078
			c-0.888,0.131-1.786,0.254-2.666,0.367c-0.05,0.006-0.103-0.023-0.12-0.076c-1.731-5.076-3.45-10.154-5.11-15.098v22.246
			c0,0.057-0.045,0.105-0.102,0.109c-1.782,0.143-3.576,0.238-5.333,0.289c-0.001,0-0.002,0-0.002,0
			c-0.029,0-0.057-0.012-0.079-0.033c-0.021-0.02-0.033-0.049-0.033-0.08v-37.178c0-0.061,0.047-0.107,0.108-0.109
			c1.685-0.051,3.403-0.141,5.111-0.271c0.062,0.008,0.098,0.025,0.114,0.074c2.162,6.055,4.443,12.375,6.782,18.785
			c2.163-6.574,4.369-13.338,6.74-20.668c0.013-0.037,0.045-0.066,0.085-0.074c1.668-0.32,3.405-0.688,5.166-1.094
			c0.032-0.008,0.066,0,0.095,0.02c0.026,0.021,0.042,0.057,0.042,0.088V475.986z M50.779,420.791
			c-0.635,0.15-1.27,0.297-1.904,0.441v12.859c0,0.211-0.147,0.396-0.354,0.443c-1.484,0.33-2.968,0.639-4.452,0.922
			c-0.027,0.004-0.057,0.006-0.084,0.006c-0.105,0-0.207-0.035-0.29-0.104c-0.104-0.084-0.164-0.213-0.164-0.348v-30.975
			c0-0.215,0.154-0.402,0.368-0.443c2.323-0.443,4.718-0.963,7.113-1.543c5.58-1.363,8.389,1.164,8.39,7.447
			c0,3.881-1.191,6.738-3.746,8.951c1.559,4.184,3.116,8.348,4.673,12.49c0.044,0.117,0.038,0.248-0.018,0.361
			c-0.056,0.113-0.157,0.195-0.277,0.232c-1.57,0.463-3.14,0.906-4.709,1.328c-0.233,0.066-0.47-0.066-0.547-0.291
			C53.446,428.66,52.112,424.734,50.779,420.791z M52.809,445.957c0-5.301,4.022-8.938,7.76-10.074
			c0.844-0.25,1.677-0.377,2.478-0.377c3.473,0,5.545,2.248,5.545,6.01v16.355c0,5.238-4,9.258-7.763,10.377
			c-0.771,0.232-1.545,0.352-2.299,0.352c-2.639,0-5.721-1.645-5.721-6.285V445.957z M185.912,450.105
			c0,0.062-0.027,0.125-0.068,0.166c-0.047,0.041-0.111,0.053-0.168,0.062l-4.83-0.248c-10.457-0.555-21.051,0.033-31.385,1.748
			c-9.209,1.504-19.098,4.027-31.117,7.945c-3.393,1.1-6.855,2.268-10.203,3.4c-6.888,2.332-14.013,4.74-21.195,6.742
			c-5.864,1.629-11.182,2.82-16.257,3.637c-5.616,0.902-11.182,1.373-16.546,1.396l-0.521,0.002H53.62
			c-0.119,0-0.219-0.094-0.226-0.215l-0.059-0.984c-0.008-0.121,0.083-0.225,0.203-0.238l0.518-0.055
			c5.228-0.551,10.605-1.555,15.979-2.982c4.848-1.283,9.884-2.953,15.396-5.104c6.758-2.635,13.521-5.707,20.06-8.678
			c3.256-1.477,6.623-3.006,9.971-4.477c11.986-5.287,22.018-8.945,31.576-11.512c10.969-2.977,22.346-4.762,33.807-5.303
			l4.834-0.17c0.057-0.006,0.121,0.021,0.164,0.062c0.045,0.045,0.068,0.104,0.068,0.164V450.105z"/>
		<path d="M130.488,420.527l-1.664,9.209c1.107-0.422,2.219-0.838,3.326-1.246L130.488,420.527z"/>
	</g>
	<g>
		<g>
			<path fill="#FFFEFE" d="M58.715,462.078c0.264,0,0.552-0.045,0.855-0.137c1.236-0.369,2.679-1.537,2.679-3.619v-16.357
				c0-1.271-0.517-1.916-1.535-1.916c-0.272,0-0.57,0.049-0.884,0.143c-1.294,0.387-2.678,1.531-2.678,3.572v16.355
				C57.152,461.014,57.423,462.078,58.715,462.078z"/>
			<path fill="#FFFEFE" d="M51.203,406.012c-0.379,0-0.84,0.064-1.37,0.189c-0.653,0.158-1.305,0.311-1.958,0.457v8.729
				c0.655-0.146,1.309-0.301,1.963-0.463c2.739-0.666,3.221-2.234,3.221-5.285C53.059,406.855,52.625,406.012,51.203,406.012z"/>
			<path fill="#FFFEFE" d="M51.276,392.682c0.134,0,0.279-0.018,0.431-0.057c0.753-0.189,1.557-0.822,1.557-2.033v-10.346
				c0-0.746-0.292-1.109-0.893-1.109c-0.138,0-0.287,0.021-0.443,0.059c-0.751,0.191-1.555,0.818-1.555,2.012v10.346
				C50.373,392.301,50.677,392.682,51.276,392.682z"/>
			<path fill="#FFFEFE" d="M3.401-3v594.455l43.968-52.238c2.229-2.646,6.223-2.992,8.872-0.764l22.082,18.584l46.742-48.941
				c2.385-2.504,6.211-2.422,8.492,0.184l69.043,78.787V-3H3.401z M168.6,419.727c0-0.225,0.166-0.416,0.391-0.449
				c1.459-0.213,2.957-0.404,4.451-0.564c0.133-0.01,0.254,0.027,0.354,0.113c0.094,0.084,0.146,0.209,0.146,0.336v1.393
				c0,0.773,0.266,2.646,2.643,2.432c2.541-0.186,2.807-1.475,2.807-4.367c0-3.137-0.314-3.467-2.256-4.111
				c-1.059-0.357-2.113-0.695-3.166-1.02c-4.277-1.293-5.15-4.055-5.15-7.801c0-5.547,3.152-9.385,8.027-9.781
				c0.209-0.016,0.414-0.023,0.611-0.023c4.492,0,7.271,3.727,7.271,7.176v2.174c0,0.252-0.197,0.453-0.447,0.453
				c-1.441,0.004-2.928,0.047-4.416,0.119c-0.123,0.01-0.248-0.039-0.338-0.123c-0.088-0.086-0.137-0.205-0.137-0.33v-0.998
				c0-1.211-0.326-3.268-2.646-3.092c-1.107,0.092-2.586,0.586-2.586,3.826c0,2.326,0.178,2.836,2.207,3.463
				c1.137,0.359,2.275,0.729,3.408,1.125c4.168,1.391,4.955,4.16,4.955,8.783c0,6.246-2.639,9.475-8.072,9.867
				c-0.258,0.021-0.516,0.029-0.77,0.029c-2.043,0-3.891-0.676-5.201-1.904c-1.365-1.275-2.086-3.029-2.086-5.07V419.727z
				 M149.543,401.631c0-0.203,0.137-0.381,0.33-0.434c1.426-0.402,2.848-0.783,4.273-1.148c0.219-0.057,0.451,0.062,0.533,0.273
				c1.973,4.988,3.939,10.016,5.912,15.082v-16.486c0-0.215,0.152-0.4,0.359-0.443c1.482-0.309,2.971-0.596,4.453-0.854
				c0.127-0.021,0.268,0.012,0.367,0.1c0.105,0.084,0.162,0.213,0.162,0.346v30.975c0,0.221-0.158,0.406-0.375,0.445
				c-1.389,0.24-2.775,0.508-4.164,0.795c-0.215,0.047-0.432-0.074-0.512-0.277c-2-5.076-4-10.104-6.002-15.094v16.508
				c0,0.209-0.137,0.387-0.34,0.439c-1.475,0.375-2.947,0.77-4.422,1.184c-0.043,0.01-0.084,0.016-0.125,0.016
				c-0.098,0-0.193-0.031-0.273-0.092c-0.113-0.086-0.178-0.221-0.178-0.361V401.631z M140.535,404.387
				c0-0.195,0.125-0.369,0.309-0.432c1.482-0.486,2.965-0.957,4.449-1.414c0.139-0.041,0.283-0.014,0.4,0.07
				c0.115,0.086,0.184,0.221,0.184,0.365v30.973c0,0.197-0.129,0.373-0.32,0.432c-1.479,0.453-2.953,0.924-4.428,1.408
				c-0.049,0.014-0.096,0.021-0.145,0.021c-0.09,0-0.186-0.027-0.262-0.086c-0.119-0.086-0.188-0.221-0.188-0.365V404.387z
				 M127.465,408.734c1.234-0.473,2.467-0.938,3.703-1.389c0.123-0.045,0.254-0.037,0.367,0.021c0.115,0.062,0.197,0.17,0.229,0.293
				c2.307,9.475,4.615,18.977,6.92,28.514c0.053,0.227-0.076,0.459-0.295,0.533c-1.48,0.504-2.955,1.023-4.43,1.557
				c-0.125,0.047-0.262,0.035-0.375-0.031c-0.113-0.062-0.197-0.174-0.225-0.303l-1.193-5.672c-1.771,0.65-3.541,1.316-5.312,1.996
				l-1.26,6.91c-0.029,0.154-0.135,0.283-0.283,0.342c-1.475,0.574-2.953,1.156-4.434,1.748c-0.053,0.023-0.109,0.031-0.166,0.031
				c-0.105,0-0.207-0.035-0.291-0.105c-0.129-0.105-0.186-0.275-0.152-0.438c2.305-11.246,4.611-22.475,6.916-33.676
				C127.213,408.916,127.32,408.787,127.465,408.734z M122.959,410.691c0.127,0.082,0.201,0.225,0.201,0.375v4.178
				c0,0.182-0.113,0.35-0.287,0.42c-1.615,0.639-3.23,1.285-4.846,1.941v26.492c0,0.182-0.111,0.35-0.281,0.418
				c-1.479,0.6-2.957,1.207-4.436,1.816c-0.059,0.021-0.115,0.033-0.176,0.033c-0.086,0-0.174-0.025-0.25-0.076
				c-0.125-0.084-0.199-0.223-0.199-0.375v-26.121c-1.502,0.619-3.004,1.248-4.506,1.873c-0.139,0.057-0.299,0.043-0.428-0.043
				c-0.125-0.082-0.201-0.223-0.201-0.375v-4.176c0-0.184,0.109-0.348,0.281-0.418c4.66-1.945,9.668-4.02,14.707-6.008
				C122.68,410.588,122.838,410.605,122.959,410.691z M94.4,385.877c0-0.184,0.111-0.35,0.28-0.42
				c1.419-0.59,2.841-1.18,4.261-1.773c0.233-0.096,0.495,0.012,0.592,0.24l5.915,14.004V381.26c0-0.186,0.111-0.348,0.277-0.418
				l4.439-1.854c0.137-0.057,0.301-0.041,0.426,0.043s0.201,0.223,0.201,0.377v30.973c0,0.184-0.111,0.348-0.277,0.418l-4.178,1.74
				c-0.229,0.096-0.49-0.01-0.592-0.236l-6.001-13.961v16.66c0,0.182-0.111,0.348-0.28,0.416l-4.438,1.85
				c-0.055,0.023-0.115,0.033-0.174,0.033c-0.087,0-0.175-0.025-0.251-0.074C94.476,417.143,94.4,417,94.4,416.85V385.877z
				 M94.975,422.514c1.971,4.678,3.944,9.348,5.915,14.016v-16.668c0-0.184,0.111-0.348,0.279-0.418l4.437-1.859
				c0.137-0.061,0.299-0.045,0.424,0.041c0.127,0.084,0.201,0.225,0.201,0.377v30.973c0,0.186-0.105,0.348-0.275,0.418l-4.176,1.75
				c-0.231,0.094-0.493-0.01-0.591-0.236l-6.004-13.971v16.654c0,0.184-0.11,0.35-0.28,0.42c-1.479,0.613-2.959,1.225-4.439,1.826
				c-0.056,0.023-0.113,0.033-0.171,0.033c-0.089,0-0.178-0.025-0.253-0.074c-0.125-0.086-0.2-0.227-0.2-0.377v-30.973
				c0-0.184,0.11-0.352,0.281-0.42c1.42-0.58,2.842-1.164,4.262-1.754C94.609,422.182,94.878,422.283,94.975,422.514z
				 M91.969,386.797c0.126,0.082,0.201,0.225,0.201,0.375v4.176c0,0.184-0.111,0.35-0.282,0.42c-2.834,1.162-5.67,2.309-8.505,3.428
				v8.117c2.344-0.928,4.688-1.869,7.031-2.828c0.141-0.055,0.298-0.041,0.424,0.043c0.126,0.084,0.201,0.227,0.201,0.375v4.178
				c0,0.184-0.111,0.35-0.282,0.418c-2.458,1.008-4.917,1.996-7.375,2.963v8.121c2.72-1.078,5.441-2.178,8.162-3.293
				c0.139-0.057,0.301-0.041,0.424,0.043c0.126,0.084,0.201,0.227,0.201,0.375v4.439c0,0.184-0.111,0.348-0.281,0.418
				c-5.079,2.086-9.285,3.756-13.236,5.258c-0.052,0.02-0.106,0.029-0.161,0.029c-0.091,0-0.181-0.025-0.256-0.08
				c-0.124-0.082-0.196-0.223-0.196-0.371v-30.975c0-0.188,0.116-0.355,0.292-0.422c3.944-1.5,8.143-3.17,13.213-5.252
				C91.684,386.697,91.843,386.713,91.969,386.797z M73.895,406.928c0.137-0.055,0.293-0.031,0.416,0.053
				c0.121,0.084,0.193,0.223,0.193,0.373v4.174c0,0.191-0.119,0.359-0.297,0.424c-2.533,0.93-5.008,1.799-7.359,2.584v8.137
				c2.613-0.879,5.295-1.828,8.177-2.893c0.139-0.053,0.293-0.029,0.415,0.053c0.123,0.084,0.195,0.225,0.195,0.371v4.439
				c0,0.188-0.118,0.357-0.297,0.422c-4.753,1.758-9.086,3.242-13.247,4.539c-0.043,0.016-0.088,0.021-0.133,0.021
				c-0.096,0-0.19-0.031-0.269-0.088c-0.116-0.086-0.184-0.221-0.184-0.365v-30.973c0-0.199,0.128-0.375,0.319-0.432
				c4.143-1.293,8.462-2.771,13.201-4.523c0.139-0.051,0.293-0.031,0.415,0.053c0.123,0.086,0.195,0.225,0.195,0.373v4.176
				c0,0.189-0.118,0.359-0.297,0.424c-2.995,1.107-5.776,2.092-8.49,3v8.135C69.104,408.646,71.472,407.812,73.895,406.928z
				 M71.043,431.697c0-0.191,0.121-0.365,0.302-0.428c1.476-0.523,2.954-1.061,4.43-1.613c0.14-0.051,0.294-0.031,0.417,0.053
				c0.121,0.086,0.195,0.225,0.195,0.373v23.578c0,1.705,0.775,2.277,2.125,1.764c1.534-0.586,2.449-2.025,2.449-3.854v-23.578
				c0-0.186,0.115-0.352,0.29-0.422c1.477-0.574,2.955-1.158,4.431-1.75c0.14-0.057,0.298-0.039,0.423,0.047
				c0.124,0.084,0.199,0.225,0.199,0.373v24.014c0,4.193-3.35,8.883-7.469,10.453c-0.917,0.35-1.82,0.529-2.68,0.529
				c-3.058,0-5.113-2.221-5.113-5.525V431.697z M70.275,370.322c0-0.193,0.122-0.365,0.302-0.428
				c2.671-0.941,5.404-1.949,8.353-3.074c0.14-0.055,0.295-0.039,0.418,0.049c0.124,0.084,0.197,0.227,0.197,0.375v2.639
				c0,0.189-0.117,0.357-0.292,0.424c-1.756,0.67-3.511,1.328-5.267,1.967v4.789c1.41-0.516,2.818-1.043,4.229-1.576
				c0.138-0.057,0.295-0.039,0.418,0.049c0.123,0.084,0.196,0.223,0.196,0.373v2.641c0,0.188-0.117,0.357-0.292,0.424
				c-1.518,0.576-3.033,1.141-4.551,1.695v4.787c1.648-0.604,3.296-1.221,4.944-1.852c0.139-0.053,0.294-0.033,0.417,0.049
				c0.124,0.084,0.197,0.227,0.197,0.375v2.805c0,0.188-0.117,0.357-0.291,0.424c-2.957,1.131-5.696,2.137-8.376,3.082
				c-0.048,0.02-0.1,0.027-0.15,0.027c-0.093,0-0.185-0.029-0.261-0.084c-0.121-0.084-0.192-0.225-0.192-0.371V370.322z
				 M58.274,388.283c0-0.201,0.133-0.381,0.325-0.436c0.934-0.277,1.867-0.559,2.801-0.846c0.139-0.047,0.288-0.018,0.402,0.066
				c0.117,0.084,0.185,0.221,0.185,0.365v0.879c0.001,0.938,0.489,1.248,1.391,0.955c1.558-0.502,1.72-1.344,1.72-3.145
				c0-1.898-0.113-1.908-1.205-1.992c-0.677-0.061-1.349-0.125-2.018-0.191c-3.051-0.299-3.463-2.473-3.463-4.555
				c0-3.482,1.966-6.271,5.129-7.285c0.575-0.182,1.133-0.273,1.663-0.273c2.09,0,3.607,1.508,3.607,3.586v1.373
				c0,0.193-0.124,0.367-0.306,0.43c-0.937,0.32-1.875,0.635-2.811,0.947c-0.142,0.037-0.291,0.02-0.408-0.064
				c-0.119-0.086-0.189-0.223-0.189-0.367v-0.633c0-1.195-0.464-1.59-1.39-1.291c-1.08,0.346-1.583,1.199-1.583,2.697
				c0,1.449,0.087,1.574,1.178,1.658c0.715,0.059,1.427,0.111,2.141,0.16c3.108,0.146,3.367,2.367,3.367,4.828
				c0,4.006-1.783,6.701-5.157,7.789c-0.579,0.186-1.146,0.275-1.685,0.275c-1.078,0-2.001-0.367-2.669-1.064
				c-0.671-0.699-1.026-1.678-1.026-2.824V388.283z M46.661,381.854c0-3.471,2.615-5.721,5.045-6.344
				c0.462-0.113,0.922-0.172,1.37-0.172c1.887,0,3.9,1.086,3.9,4.143v10.344c0,3.428-2.54,5.857-5.048,6.486
				c-0.431,0.109-0.866,0.164-1.292,0.164c-1.833,0-3.975-1.119-3.975-4.275V381.854z M34.824,379.318
				c0-0.23,0.17-0.422,0.396-0.451c0.931-0.121,1.864-0.252,2.794-0.395c0.134-0.012,0.264,0.018,0.364,0.107
				c0.101,0.082,0.158,0.211,0.158,0.342v7.865c0.853-0.133,1.708-0.275,2.56-0.428v-8.014c0-0.217,0.158-0.406,0.373-0.445
				c0.933-0.166,1.867-0.344,2.798-0.531c0.134-0.029,0.272,0.008,0.376,0.094s0.166,0.215,0.166,0.352v19.588
				c0,0.217-0.153,0.402-0.364,0.447c-0.938,0.188-1.876,0.363-2.815,0.533c-0.133,0.018-0.269-0.012-0.371-0.096
				c-0.104-0.088-0.163-0.217-0.163-0.35v-8.18c-0.853,0.15-1.707,0.291-2.56,0.422v8.332c0,0.225-0.164,0.414-0.385,0.447
				c-0.938,0.145-1.878,0.275-2.817,0.396c-0.019,0.004-0.038,0.004-0.058,0.004c-0.109,0-0.216-0.039-0.299-0.111
				c-0.098-0.088-0.155-0.211-0.155-0.342V379.318z M22.089,379.064c-0.121,0-0.235-0.047-0.32-0.133
				c-0.085-0.084-0.134-0.199-0.134-0.32v-3.303c0-0.248,0.203-0.451,0.452-0.451c3.741-0.018,7.637-0.256,11.579-0.711
				c0.13-0.008,0.257,0.027,0.354,0.113c0.095,0.084,0.151,0.209,0.151,0.338v3.303c0,0.23-0.172,0.426-0.401,0.449
				c-1.22,0.141-2.44,0.262-3.659,0.363v20.775c0,0.236-0.182,0.434-0.417,0.453c-1.175,0.094-2.352,0.164-3.526,0.217
				c-0.007,0-0.013,0-0.02,0c-0.117,0-0.229-0.045-0.314-0.123c-0.088-0.086-0.139-0.205-0.139-0.33v-20.721
				C24.472,379.033,23.261,379.061,22.089,379.064L22.089,379.064z M23.297,412.459c0-5.275,4.069-8.076,7.85-8.445
				c0.271-0.023,0.542-0.037,0.81-0.037c3.288,0,7.125,1.867,7.125,7.125v1.568c0,0.223-0.163,0.414-0.383,0.445
				c-1.478,0.232-2.976,0.441-4.454,0.617c-0.133,0.021-0.257-0.027-0.354-0.111c-0.097-0.088-0.153-0.209-0.153-0.34v-1.566
				c0-1.623-0.965-2.494-2.505-2.365c-1.622,0.152-2.591,1.244-2.591,2.92v16.355c0,1.648,0.988,2.598,2.507,2.445
				c1.195-0.109,2.589-0.961,2.589-3v-5.32c-1.01,0.117-2.021,0.219-3.03,0.309c-0.126,0.01-0.254-0.033-0.345-0.119
				c-0.094-0.084-0.148-0.203-0.148-0.334v-3.914c0-0.234,0.18-0.43,0.414-0.449c2.597-0.23,5.265-0.557,7.93-0.975
				c0.14-0.021,0.265,0.018,0.366,0.102c0.1,0.088,0.158,0.213,0.158,0.346v9.744c0,5.359-4.046,8.613-7.852,8.951
				c-0.239,0.023-0.483,0.035-0.726,0.035c-3.581,0-7.207-2.621-7.207-7.631V412.459z M48.563,474.986
				c0,0.053-0.035,0.096-0.086,0.109c-1.756,0.404-3.549,0.783-5.33,1.125c-0.033,0.006-0.066-0.004-0.093-0.023
				c-0.024-0.021-0.04-0.053-0.04-0.086V453.92c-1.758,5.652-3.493,11.207-5.161,16.512c-0.013,0.041-0.048,0.07-0.089,0.078
				c-0.888,0.131-1.786,0.254-2.666,0.367c-0.05,0.006-0.103-0.023-0.12-0.076c-1.731-5.076-3.45-10.154-5.11-15.098v22.246
				c0,0.057-0.045,0.105-0.102,0.109c-1.782,0.143-3.576,0.238-5.333,0.289c-0.001,0-0.002,0-0.002,0
				c-0.029,0-0.057-0.012-0.079-0.033c-0.021-0.02-0.033-0.049-0.033-0.08v-37.178c0-0.061,0.047-0.107,0.108-0.109
				c1.685-0.051,3.403-0.141,5.111-0.271c0.062,0.008,0.098,0.025,0.114,0.074c2.162,6.055,4.443,12.375,6.782,18.785
				c2.163-6.574,4.369-13.338,6.74-20.668c0.013-0.037,0.045-0.066,0.085-0.074c1.668-0.32,3.405-0.688,5.166-1.094
				c0.032-0.008,0.066,0,0.095,0.02c0.026,0.021,0.042,0.057,0.042,0.088V474.986z M49.779,419.791
				c-0.635,0.15-1.27,0.297-1.904,0.441v12.859c0,0.211-0.147,0.396-0.354,0.443c-1.484,0.33-2.968,0.639-4.452,0.922
				c-0.027,0.004-0.057,0.006-0.084,0.006c-0.105,0-0.207-0.035-0.29-0.104c-0.104-0.084-0.164-0.213-0.164-0.348v-30.975
				c0-0.215,0.154-0.402,0.368-0.443c2.323-0.443,4.718-0.963,7.113-1.543c5.58-1.363,8.389,1.164,8.39,7.447
				c0,3.881-1.191,6.738-3.746,8.951c1.559,4.184,3.116,8.348,4.673,12.49c0.044,0.117,0.038,0.248-0.018,0.361
				c-0.056,0.113-0.157,0.195-0.277,0.232c-1.57,0.463-3.14,0.906-4.709,1.328c-0.233,0.066-0.47-0.066-0.547-0.291
				C52.446,427.66,51.112,423.734,49.779,419.791z M51.809,444.957c0-5.301,4.022-8.938,7.76-10.074
				c0.844-0.25,1.677-0.377,2.478-0.377c3.473,0,5.545,2.248,5.545,6.01v16.355c0,5.238-4,9.258-7.763,10.377
				c-0.771,0.232-1.545,0.352-2.299,0.352c-2.639,0-5.721-1.645-5.721-6.285V444.957z M184.912,449.105
				c0,0.062-0.027,0.125-0.068,0.166c-0.047,0.041-0.111,0.053-0.168,0.062l-4.83-0.248c-10.457-0.555-21.051,0.033-31.385,1.748
				c-9.209,1.504-19.098,4.027-31.117,7.945c-3.393,1.1-6.855,2.268-10.203,3.4c-6.888,2.332-14.013,4.74-21.195,6.742
				c-5.864,1.629-11.182,2.82-16.257,3.637c-5.616,0.902-11.182,1.373-16.546,1.396l-0.521,0.002H52.62
				c-0.119,0-0.219-0.094-0.226-0.215l-0.059-0.984c-0.008-0.121,0.083-0.225,0.203-0.238l0.518-0.055
				c5.228-0.551,10.605-1.555,15.979-2.982c4.848-1.283,9.884-2.953,15.396-5.104c6.758-2.635,13.521-5.707,20.061-8.678
				c3.255-1.477,6.623-3.006,9.97-4.477c11.986-5.287,22.018-8.945,31.576-11.512c10.969-2.977,22.346-4.762,33.807-5.303
				l4.834-0.17c0.057-0.006,0.121,0.021,0.164,0.062c0.045,0.045,0.068,0.104,0.068,0.164V449.105z"/>
			<path fill="#FFFEFE" d="M129.488,419.527l-1.664,9.209c1.107-0.422,2.219-0.838,3.326-1.246L129.488,419.527z"/>
		</g>
	</g>
</g>
</svg>
