<?xml version="1.0" encoding="utf-8"?>
<!-- Generator: Adobe Illustrator 16.0.0, SVG Export Plug-In . SVG Version: 6.00 Build 0)  -->
<!DOCTYPE svg PUBLIC "-//W3C//DTD SVG 1.1//EN" "http://www.w3.org/Graphics/SVG/1.1/DTD/svg11.dtd">
<svg version="1.1" id="Layer_1" xmlns="http://www.w3.org/2000/svg" xmlns:xlink="http://www.w3.org/1999/xlink" x="0px" y="0px"
	 width="400px" height="357.518px" viewBox="0 0 400 357.518" enable-background="new 0 0 400 357.518" xml:space="preserve">
<g>
	<g>
		<path fill="#FFFEFE" d="M356.955,9.468c13.717,0,24.672,5.348,30.055,14.673c5.382,9.323,4.537,21.483-2.321,33.362
			L227.739,329.359c-6.86,11.879-16.971,18.691-27.737,18.691c-10.769,0-20.877-6.812-27.732-18.689L15.312,57.502
			c-6.857-11.875-7.704-24.035-2.323-33.359C18.377,14.816,29.333,9.468,43.05,9.468H356.955 M356.955,0H43.05
			C25.857,0,11.915,7.074,4.791,19.407c-7.117,12.335-6.273,27.943,2.323,42.83L164.07,334.095
			c8.592,14.886,21.69,23.423,35.932,23.423c14.236,0,27.334-8.531,35.936-23.423l156.95-271.857
			c8.593-14.887,9.44-30.499,2.321-42.83C388.088,7.073,374.144,0,356.955,0L356.955,0z"/>
	</g>
	<g>
		<g>
			<path fill="#FFFEFE" d="M356.955,18.936H239.072c-21.487,0-56.652,0-78.135,0H43.05c-21.491,0-30.282,15.224-19.538,33.832
				L82.46,154.864c10.738,18.612,28.324,49.059,39.067,67.667l58.945,102.101c10.738,18.601,28.318,18.601,39.067,0l58.935-102.101
				c10.752-18.608,28.325-49.055,39.07-67.667l58.942-102.097C387.232,34.159,378.445,18.936,356.955,18.936z M274.489,54.582
				c0-0.079,0.065-0.142,0.144-0.142h7.176c0.078,0,0.143,0.062,0.143,0.142v22.69h12.126c0.078,0,0.142,0.063,0.142,0.143v6.395
				c0,0.078-0.063,0.141-0.142,0.141h-19.444c-0.078,0-0.144-0.062-0.144-0.141V54.582z M246.494,54.582
				c0-0.079,0.064-0.142,0.143-0.142h19.865c0.078,0,0.144,0.062,0.144,0.142v6.395c0,0.078-0.065,0.142-0.144,0.142h-12.546v4.607
				h10.703c0.077,0,0.142,0.064,0.142,0.143v6.394c0,0.079-0.064,0.143-0.142,0.143h-10.703v4.868h12.546
				c0.078,0,0.144,0.063,0.144,0.143v6.395c0,0.078-0.065,0.141-0.144,0.141h-19.865c-0.078,0-0.143-0.062-0.143-0.141V54.582z
				 M230.53,54.582c0-0.079,0.065-0.142,0.144-0.142h7.176c0.078,0,0.142,0.062,0.142,0.142V83.81c0,0.078-0.063,0.141-0.142,0.141
				h-7.176c-0.078,0-0.144-0.062-0.144-0.141V54.582z M203.263,54.582c0-0.079,0.064-0.142,0.143-0.142h19.866
				c0.078,0,0.143,0.062,0.143,0.142v6.395c0,0.078-0.064,0.142-0.143,0.142h-12.548v4.849h10.703c0.078,0,0.143,0.062,0.143,0.142
				v6.395c0,0.078-0.064,0.142-0.143,0.142h-10.703V83.81c0,0.078-0.064,0.141-0.143,0.141h-7.176c-0.078,0-0.143-0.062-0.143-0.141
				V54.582z M172.86,80.101l4.61-4.611c0.055-0.053,0.148-0.053,0.201,0c0.701,0.701,1.638,1.219,2.784,1.538
				c1.157,0.322,2.379,0.486,3.631,0.486c2.724,0,4.048-0.813,4.048-2.484c0-0.707-0.183-1.253-0.542-1.625
				c-0.363-0.376-0.982-0.625-1.841-0.741l-3.529-0.5c-2.611-0.363-4.616-1.247-5.956-2.628c-1.355-1.397-2.044-3.407-2.044-5.973
				c0-1.796,0.442-3.423,1.313-4.835c0.872-1.413,2.14-2.533,3.768-3.33c1.623-0.796,3.55-1.198,5.726-1.198
				c2.155,0,4.07,0.282,5.688,0.84c1.624,0.559,3.062,1.464,4.274,2.69c0.056,0.056,0.056,0.146,0,0.201l-4.511,4.51
				c-0.056,0.056-0.145,0.056-0.2,0c-0.727-0.727-1.521-1.192-2.357-1.386c-0.854-0.197-1.896-0.297-3.095-0.297
				c-1.107,0-1.959,0.264-2.531,0.785c-0.575,0.524-0.855,1.106-0.855,1.779c0,0.486,0.177,0.899,0.54,1.262
				c0.429,0.431,1.075,0.707,1.923,0.823l3.528,0.481c2.585,0.376,4.548,1.205,5.834,2.464c0.773,0.747,1.342,1.666,1.689,2.734
				c0.344,1.059,0.518,2.331,0.518,3.782c0,1.932-0.518,3.626-1.54,5.034c-1.021,1.405-2.417,2.483-4.15,3.205
				c-1.727,0.719-3.656,1.084-5.737,1.084c-2.423,0-4.562-0.293-6.358-0.87c-1.804-0.577-3.429-1.596-4.829-3.021
				C172.805,80.245,172.806,80.155,172.86,80.101z M142.669,54.582c0-0.079,0.063-0.142,0.142-0.142h6.277
				c0.048,0,0.094,0.024,0.119,0.065l9.098,14.282V54.582c0-0.079,0.063-0.142,0.142-0.142h7.177c0.078,0,0.143,0.062,0.143,0.142
				V83.81c0,0.078-0.064,0.141-0.143,0.141h-6.274c-0.048,0-0.094-0.023-0.119-0.064l-9.101-14.283V83.81
				c0,0.078-0.063,0.141-0.142,0.141h-7.177c-0.078,0-0.142-0.062-0.142-0.141V54.582z M119.92,54.533
				c0.021-0.056,0.074-0.093,0.134-0.093h5.553c0.06,0,0.113,0.037,0.134,0.093l10.624,29.228c0.016,0.044,0.01,0.092-0.017,0.13
				c-0.027,0.038-0.07,0.06-0.116,0.06h-7.497c-0.062,0-0.117-0.039-0.136-0.099l-1.332-4.25h-8.794l-1.391,4.252
				c-0.02,0.059-0.073,0.097-0.135,0.097h-7.518c-0.047,0-0.09-0.021-0.116-0.06c-0.027-0.038-0.033-0.086-0.018-0.13L119.92,54.533
				z M38.993,45.155c-3.581,0-6.488-2.903-6.488-6.482s2.907-6.482,6.488-6.482c3.577,0,6.477,2.903,6.477,6.482
				S42.57,45.155,38.993,45.155z M83.747,83.81c0,0.078-0.063,0.141-0.142,0.141h-7.177c-0.078,0-0.142-0.062-0.142-0.141V54.582
				c0-0.079,0.063-0.142,0.142-0.142h7.057c0.054,0,0.103,0.029,0.127,0.077l6.428,12.642l6.448-12.642
				c0.024-0.048,0.074-0.077,0.127-0.077h7.057c0.078,0,0.142,0.062,0.142,0.142V83.81c0,0.078-0.063,0.141-0.142,0.141h-7.178
				c-0.078,0-0.142-0.062-0.142-0.141V70.349l-3.885,6.756c-0.024,0.044-0.072,0.071-0.122,0.071h-4.591
				c-0.052,0-0.098-0.027-0.124-0.071l-3.884-6.756V83.81z M108.037,115.288c0,0.419-0.078,0.716-0.238,0.906
				c-0.163,0.191-0.423,0.289-0.774,0.289c-0.362,0-0.63-0.099-0.796-0.294c-0.164-0.192-0.244-0.488-0.244-0.901v-0.816h-3.84v2.03
				l1.336-0.01c0-0.353,0.082-0.62,0.241-0.799c0.162-0.184,0.407-0.274,0.729-0.274c0.283,0,0.519,0.082,0.7,0.244
				c0.186,0.166,0.279,0.378,0.279,0.63c0,0.012,0.003,0.046,0.008,0.104c0.006,0.067,0.009,0.134,0.009,0.2v1.793
				c0,0.413-0.074,0.705-0.229,0.894c-0.156,0.188-0.408,0.284-0.749,0.284c-0.32,0-0.567-0.088-0.735-0.262
				c-0.167-0.174-0.252-0.43-0.252-0.76v-0.062h-1.336v2.401h3.84v-0.937c0-0.414,0.08-0.706,0.245-0.894
				c0.166-0.188,0.434-0.284,0.795-0.284c0.356,0,0.618,0.095,0.778,0.281c0.157,0.184,0.234,0.477,0.234,0.896v2.099
				c0,0.344-0.07,0.571-0.215,0.694c-0.141,0.121-0.396,0.18-0.78,0.18h-7.098c-0.409,0-0.698-0.082-0.883-0.251
				c-0.185-0.168-0.278-0.439-0.278-0.806c0-0.33,0.088-0.588,0.263-0.765c0.173-0.177,0.426-0.266,0.751-0.266h0.053v-6.276h-0.053
				c-0.319,0-0.571-0.092-0.748-0.275c-0.176-0.183-0.266-0.442-0.266-0.772c0-0.361,0.095-0.63,0.283-0.802
				c0.185-0.169,0.48-0.254,0.878-0.254h7.098c0.379,0,0.633,0.06,0.776,0.183c0.147,0.128,0.219,0.359,0.219,0.709V115.288z
				 M120.798,122.048c0,0.344-0.07,0.57-0.215,0.694c-0.141,0.121-0.399,0.18-0.789,0.18h-7.86c-0.398,0-0.692-0.085-0.87-0.251
				c-0.181-0.168-0.273-0.439-0.273-0.806c0-0.361,0.091-0.627,0.27-0.79c0.179-0.161,0.466-0.24,0.874-0.24h0.668v-6.276h-0.668
				c-0.398,0-0.692-0.084-0.87-0.25c-0.181-0.169-0.273-0.437-0.273-0.798c0-0.362,0.097-0.631,0.287-0.802
				c0.188-0.169,0.481-0.254,0.873-0.254h3.692c0.393,0,0.686,0.085,0.873,0.254c0.19,0.171,0.287,0.44,0.287,0.802
				c0,0.362-0.095,0.63-0.282,0.799c-0.188,0.168-0.476,0.249-0.878,0.249h-0.65v6.276h3.754v-1.448
				c0-0.426,0.076-0.724,0.234-0.911c0.159-0.189,0.421-0.284,0.778-0.284c0.355,0,0.621,0.097,0.79,0.287
				c0.168,0.19,0.249,0.488,0.249,0.908V122.048z M132.58,115.288c0,0.419-0.077,0.716-0.239,0.906
				c-0.162,0.191-0.422,0.289-0.773,0.289c-0.363,0-0.63-0.099-0.796-0.294c-0.164-0.192-0.243-0.488-0.243-0.901v-0.816h-3.841
				v2.03l1.336-0.01c0-0.353,0.082-0.62,0.241-0.799c0.161-0.184,0.407-0.274,0.729-0.274c0.282,0,0.519,0.082,0.7,0.244
				c0.185,0.166,0.278,0.378,0.278,0.63c0,0.012,0.003,0.046,0.009,0.104c0.006,0.067,0.009,0.134,0.009,0.2v1.793
				c0,0.413-0.075,0.705-0.229,0.894c-0.157,0.188-0.409,0.284-0.749,0.284c-0.32,0-0.567-0.088-0.736-0.262
				c-0.166-0.174-0.251-0.43-0.251-0.76v-0.062h-1.336v2.401h3.841v-0.937c0-0.414,0.079-0.706,0.244-0.894
				c0.166-0.188,0.433-0.284,0.795-0.284c0.356,0,0.618,0.095,0.778,0.281c0.158,0.184,0.234,0.477,0.234,0.896v2.099
				c0,0.344-0.07,0.571-0.215,0.694c-0.141,0.121-0.396,0.18-0.78,0.18h-7.098c-0.409,0-0.698-0.082-0.883-0.251
				c-0.185-0.168-0.278-0.439-0.278-0.806c0-0.33,0.088-0.588,0.262-0.765s0.426-0.266,0.752-0.266h0.053v-6.276h-0.053
				c-0.32,0-0.572-0.092-0.748-0.275c-0.176-0.183-0.266-0.442-0.266-0.772c0-0.361,0.095-0.63,0.282-0.802
				c0.186-0.169,0.481-0.254,0.879-0.254h7.098c0.379,0,0.633,0.06,0.775,0.183c0.148,0.128,0.22,0.359,0.22,0.709V115.288z
				 M145.663,114.283c-0.181,0.184-0.439,0.275-0.771,0.275h-0.071l-2.621,7.45c-0.146,0.416-0.288,0.667-0.434,0.767
				c-0.146,0.099-0.382,0.146-0.722,0.146h-1.065c-0.544,0-0.927-0.289-1.138-0.859l-0.018-0.055l-2.672-7.449h-0.081
				c-0.32,0-0.569-0.092-0.74-0.271c-0.17-0.181-0.256-0.441-0.256-0.777c0-0.373,0.091-0.645,0.269-0.81
				c0.179-0.166,0.465-0.246,0.875-0.246h2.574c0.397,0,0.692,0.085,0.878,0.254c0.188,0.172,0.282,0.44,0.282,0.802
				c0,0.362-0.096,0.63-0.282,0.799c-0.188,0.168-0.476,0.249-0.878,0.249h-0.103l1.949,5.759l2.014-5.759h-0.1
				c-0.409,0-0.698-0.08-0.883-0.245c-0.185-0.166-0.278-0.435-0.278-0.803c0-0.366,0.094-0.637,0.277-0.806
				c0.186-0.168,0.479-0.25,0.9-0.25h2.184c0.422,0,0.716,0.082,0.9,0.25c0.185,0.169,0.277,0.439,0.277,0.806
				C145.932,113.842,145.842,114.101,145.663,114.283z M149.869,114.559c-0.422,0-0.718-0.081-0.908-0.248
				c-0.19-0.17-0.287-0.438-0.287-0.8c0-0.367,0.097-0.639,0.287-0.807s0.486-0.249,0.908-0.249h3.249
				c0.556,0,0.95,0.301,1.172,0.893l2.725,7.487h0.081c0.336,0,0.598,0.088,0.777,0.265s0.271,0.435,0.271,0.766
				c0,0.367-0.097,0.639-0.287,0.807s-0.486,0.25-0.908,0.25h-2.607c-0.428,0-0.726-0.08-0.912-0.245
				c-0.188-0.164-0.283-0.438-0.283-0.812c0-0.362,0.095-0.629,0.283-0.792c0.188-0.16,0.485-0.238,0.912-0.238h0.169l-0.289-0.825
				h-3.61l-0.303,0.825h0.167c0.421,0,0.718,0.08,0.907,0.243c0.191,0.167,0.289,0.431,0.289,0.787c0,0.367-0.097,0.639-0.288,0.807
				c-0.189,0.168-0.486,0.25-0.908,0.25h-2.235c-0.426,0-0.725-0.082-0.912-0.25c-0.188-0.169-0.283-0.44-0.283-0.807
				c0-0.331,0.092-0.589,0.271-0.766c0.179-0.177,0.44-0.265,0.776-0.265h0.081l2.255-6.276H149.869z M200.256,323.732
				c-3.584,0-6.484-2.899-6.484-6.479c0-3.578,2.9-6.482,6.484-6.482c3.578,0,6.479,2.904,6.479,6.482
				C206.734,320.833,203.834,323.732,200.256,323.732z M200.262,250.435c-29.264,0-53.002-23.729-53.002-53.007
				c0-29.276,23.738-53.01,53.002-53.01c29.278,0,53.01,23.733,53.01,53.01C253.271,226.706,229.54,250.435,200.262,250.435z
				 M167.216,120.817c0.414,0,0.707,0.082,0.895,0.249c0.188,0.169,0.283,0.438,0.283,0.799c0,0.366-0.096,0.638-0.282,0.807
				c-0.188,0.168-0.481,0.25-0.896,0.25h-5.147c-0.403,0-0.702-0.084-0.887-0.25c-0.188-0.168-0.282-0.439-0.282-0.807
				s0.093-0.638,0.278-0.804c0.184-0.165,0.475-0.244,0.891-0.244h1.361v-6.276h-1.625l-0.05,1.882c0,0.301-0.086,0.543-0.256,0.716
				c-0.17,0.174-0.408,0.263-0.705,0.263c-0.35,0-0.613-0.094-0.784-0.277c-0.169-0.181-0.255-0.467-0.255-0.849v-0.069l0.096-2.595
				c0.019-0.554,0.097-0.871,0.246-0.996c0.143-0.12,0.411-0.178,0.819-0.178h7.452c0.408,0,0.677,0.058,0.819,0.178
				c0.148,0.125,0.229,0.441,0.255,0.995l0.086,2.665c0,0.387-0.08,0.674-0.24,0.852c-0.162,0.182-0.422,0.274-0.772,0.274
				c-0.34,0-0.59-0.092-0.744-0.271c-0.151-0.178-0.231-0.479-0.243-0.921l-0.049-1.668h-1.625v6.276H167.216z M173.771,114.559
				c-0.42,0-0.717-0.081-0.907-0.248c-0.19-0.169-0.287-0.438-0.287-0.8c0-0.368,0.096-0.637,0.283-0.799
				c0.188-0.161,0.485-0.24,0.911-0.24h5.147c0.439,0,0.74,0.079,0.921,0.241c0.183,0.161,0.274,0.431,0.274,0.798
				c0,0.362-0.095,0.63-0.282,0.799c-0.188,0.168-0.486,0.249-0.913,0.249h-1.361v6.276h1.361c0.421,0,0.718,0.08,0.907,0.243
				c0.191,0.167,0.288,0.431,0.288,0.787c0,0.361-0.098,0.632-0.292,0.803c-0.189,0.168-0.494,0.254-0.903,0.254h-5.147
				c-0.42,0-0.717-0.082-0.907-0.249c-0.19-0.169-0.287-0.44-0.287-0.808c0-0.362,0.096-0.629,0.283-0.792
				c0.188-0.16,0.486-0.238,0.911-0.238h1.361v-6.276H173.771z M182.742,117.68c0-1.6,0.47-2.932,1.396-3.959
				c0.93-1.029,2.138-1.552,3.59-1.552c1.441,0,2.645,0.523,3.577,1.557c0.93,1.029,1.4,2.359,1.4,3.954
				c0,1.606-0.468,2.939-1.392,3.963c-0.927,1.026-2.133,1.548-3.586,1.548c-1.436,0-2.639-0.525-3.577-1.561
				C183.217,120.597,182.742,119.268,182.742,117.68z M195.986,114.559c-0.319,0-0.573-0.092-0.752-0.275
				c-0.18-0.182-0.27-0.441-0.27-0.772c0-0.362,0.097-0.631,0.286-0.802c0.188-0.169,0.481-0.254,0.874-0.254h1.421
				c0.364,0,0.61,0.05,0.749,0.152c0.134,0.099,0.276,0.285,0.435,0.571l3.125,5.691v-4.312h-0.382c-0.41,0-0.699-0.082-0.884-0.249
				c-0.185-0.17-0.277-0.438-0.277-0.799c0-0.36,0.093-0.63,0.276-0.801c0.186-0.172,0.475-0.255,0.885-0.255h2.459
				c0.404,0,0.692,0.083,0.88,0.254c0.188,0.172,0.283,0.44,0.283,0.802c0,0.331-0.09,0.59-0.267,0.772
				c-0.176,0.184-0.428,0.275-0.748,0.275h-0.053v7.775c0,0.306-0.034,0.482-0.109,0.571c-0.079,0.095-0.226,0.138-0.462,0.138
				h-0.866c-0.296,0-0.501-0.031-0.628-0.098c-0.13-0.065-0.241-0.181-0.33-0.342l-3.428-6.022v4.254h0.408
				c0.397,0,0.689,0.08,0.868,0.239c0.183,0.163,0.275,0.43,0.275,0.791c0,0.366-0.094,0.638-0.278,0.806
				c-0.183,0.167-0.474,0.251-0.865,0.251h-2.487c-0.397,0-0.693-0.084-0.878-0.25c-0.188-0.168-0.282-0.439-0.282-0.807
				c0-0.33,0.087-0.587,0.26-0.765c0.175-0.177,0.431-0.266,0.762-0.266h0.044v-6.276H195.986z M223.691,118.416
				c0.088,0,0.202-0.066,0.332-0.194c0.171-0.166,0.317-0.247,0.448-0.247c0.265,0,0.477,0.067,0.633,0.2
				c0.16,0.138,0.241,0.328,0.241,0.57c0,0.062-0.004,0.127-0.014,0.195c-0.01,0.071-0.023,0.134-0.043,0.19l-0.19,0.638
				c-0.039,0.142-0.109,0.249-0.208,0.319c-0.097,0.068-0.221,0.104-0.367,0.104h-0.875v0.894h0.416
				c0.054,0,0.123,0.004,0.205,0.009c0.078,0.006,0.128,0.009,0.15,0.009c0.233,0,0.435,0.088,0.597,0.26
				c0.16,0.171,0.242,0.39,0.242,0.649c0,0.319-0.099,0.557-0.293,0.7c-0.188,0.141-0.483,0.21-0.901,0.21h-3.657
				c-0.419,0-0.71-0.069-0.894-0.211c-0.188-0.145-0.284-0.38-0.284-0.699c0-0.323,0.097-0.563,0.289-0.712
				c0.185-0.145,0.476-0.215,0.889-0.215h1.171v-0.894h-3.9c-0.18,0-0.319-0.058-0.415-0.172c-0.092-0.109-0.14-0.265-0.14-0.459
				v-0.529c0-0.226,0.017-0.396,0.052-0.523c0.032-0.124,0.089-0.259,0.169-0.399l3.641-6.188c0.1-0.166,0.175-0.259,0.244-0.302
				c0.07-0.044,0.161-0.065,0.279-0.065c0.055,0,0.103,0.002,0.142,0.004c0.041,0.003,0.078,0.008,0.109,0.015l1.542,0.269
				c0.114,0.022,0.203,0.083,0.264,0.182c0.055,0.091,0.084,0.21,0.084,0.354v6.04C223.66,118.416,223.674,118.416,223.691,118.416z
				 M229.401,125.045c0-0.067,0.002-0.118,0.005-0.15c0.004-0.036,0.008-0.07,0.016-0.103l1.23-4.512
				c0.058-0.219,0.137-0.362,0.24-0.438c0.102-0.073,0.255-0.109,0.467-0.109h2.062c0.111,0,0.2,0.021,0.271,0.067
				c0.105,0.065,0.127,0.155,0.127,0.219c0,0.037-0.008,0.08-0.025,0.137c-0.017,0.048-0.036,0.098-0.061,0.153l-2.594,5.082
				c-0.045,0.104-0.114,0.19-0.202,0.255c-0.091,0.066-0.194,0.101-0.307,0.101c-0.032,0-0.067-0.006-0.108-0.017
				c-0.028-0.008-0.057-0.015-0.083-0.021l-0.673-0.237c-0.113-0.04-0.201-0.097-0.265-0.171
				C229.436,125.224,229.401,125.137,229.401,125.045z M243.229,118.361c-0.229-0.23-0.681-0.36-1.345-0.388
				c-0.394-0.013-0.654-0.092-0.797-0.242c-0.144-0.148-0.213-0.398-0.213-0.762c0-0.508,0.287-0.816,0.828-0.892
				c0.07-0.007,0.118-0.012,0.152-0.018c0.6-0.083,0.988-0.223,1.158-0.415c0.168-0.193,0.254-0.517,0.254-0.965
				c0-0.383-0.104-0.682-0.308-0.892c-0.426-0.435-1.283-0.42-2.268,0.08c-0.552,0.277-0.926,0.412-1.145,0.412
				c-0.251,0-0.457-0.084-0.611-0.251c-0.151-0.164-0.229-0.374-0.229-0.623c0-0.527,0.362-0.981,1.074-1.35
				c0.692-0.357,1.555-0.539,2.565-0.539c1.023,0,1.854,0.271,2.468,0.804c0.615,0.535,0.928,1.257,0.928,2.143
				c0,0.584-0.144,1.084-0.429,1.489c-0.249,0.354-0.623,0.66-1.115,0.914c0.572,0.214,1.013,0.53,1.31,0.942
				c0.335,0.462,0.503,1.067,0.503,1.801c0,1.105-0.379,1.993-1.128,2.642c-0.746,0.646-1.771,0.973-3.048,0.973
				c-1.026,0-1.89-0.173-2.563-0.514c-0.696-0.352-1.05-0.79-1.05-1.307c0-0.308,0.103-0.562,0.302-0.757
				c0.2-0.192,0.467-0.29,0.79-0.29c0.104,0,0.331,0.041,1.139,0.398c1.253,0.551,2.205,0.473,2.706-0.029
				c0.272-0.271,0.411-0.671,0.411-1.185C243.57,118.987,243.455,118.59,243.229,118.361z M255.8,121.405
				c-1.104,1.195-2.583,1.803-4.395,1.803c-0.623,0-1.06-0.052-1.334-0.158c-0.371-0.146-0.449-0.395-0.449-0.578
				c0-0.583,0.44-0.9,1.311-0.944c0.351-0.022,0.625-0.046,0.836-0.068c0.884-0.106,1.59-0.434,2.094-0.972
				c0.458-0.487,0.811-1.214,1.05-2.164c-0.234,0.213-0.502,0.386-0.799,0.518c-0.403,0.178-0.841,0.268-1.304,0.268
				c-0.953,0-1.767-0.369-2.419-1.098c-0.647-0.725-0.978-1.629-0.978-2.688c0-1.125,0.371-2.049,1.1-2.742s1.703-1.044,2.896-1.044
				c1.249,0,2.249,0.462,2.973,1.374c0.718,0.907,1.081,2.164,1.081,3.738C257.462,118.611,256.903,120.212,255.8,121.405z
				 M267.57,122.192c-0.8,0.674-1.972,1.016-3.484,1.016c-1.082,0-1.918-0.122-2.485-0.363c-0.593-0.252-0.894-0.635-0.894-1.136
				c0-0.302,0.108-0.564,0.322-0.78c0.213-0.219,0.472-0.328,0.769-0.328c0.178,0,0.542,0.083,1.116,0.255
				c0.546,0.164,1.02,0.247,1.406,0.247c0.624,0,1.113-0.162,1.451-0.48c0.337-0.317,0.508-0.777,0.508-1.365
				c0-0.573-0.162-1.034-0.48-1.369c-0.318-0.334-0.759-0.504-1.306-0.504c-0.354,0-0.784,0.117-1.277,0.347
				c-0.525,0.245-0.878,0.364-1.079,0.364c-0.359,0-0.621-0.104-0.777-0.31c-0.154-0.201-0.229-0.525-0.229-0.99v-4.193
				c0-0.347,0.05-0.556,0.155-0.658c0.104-0.1,0.266-0.147,0.495-0.147h5.676c0.388,0,0.655,0.078,0.816,0.24
				c0.161,0.161,0.24,0.435,0.24,0.833c0,0.395-0.077,0.663-0.235,0.821c-0.158,0.159-0.428,0.236-0.821,0.236h-4.039v1.78
				c0.333-0.092,0.639-0.164,0.912-0.209c0.31-0.053,0.604-0.079,0.874-0.079c1.062,0,1.934,0.354,2.592,1.057
				c0.654,0.698,0.986,1.628,0.986,2.764C268.782,120.522,268.374,121.517,267.57,122.192z M287.538,115.288
				c0,0.414-0.08,0.709-0.243,0.901c-0.166,0.195-0.43,0.294-0.786,0.294c-0.357,0-0.621-0.098-0.783-0.289
				c-0.162-0.19-0.24-0.487-0.24-0.906v-0.816h-3.839v2.03l1.327-0.01c0-0.346,0.082-0.614,0.244-0.795
				c0.165-0.186,0.412-0.278,0.734-0.278c0.282,0,0.517,0.082,0.7,0.244c0.184,0.166,0.277,0.377,0.277,0.63v2.097
				c0,0.414-0.074,0.706-0.229,0.894c-0.158,0.188-0.41,0.284-0.749,0.284c-0.321,0-0.566-0.086-0.732-0.258
				c-0.164-0.171-0.246-0.428-0.246-0.764v-0.062h-1.327v2.351h0.391c0.408,0,0.696,0.08,0.882,0.244
				c0.184,0.166,0.277,0.43,0.277,0.786c0,0.366-0.094,0.638-0.281,0.807c-0.188,0.168-0.477,0.25-0.878,0.25h-2.592
				c-0.402,0-0.691-0.082-0.878-0.25c-0.188-0.168-0.284-0.44-0.284-0.807c0-0.33,0.089-0.588,0.263-0.765s0.427-0.266,0.753-0.266
				h0.053v-6.276h-0.053c-0.322,0-0.573-0.092-0.749-0.275s-0.267-0.442-0.267-0.772c0-0.361,0.099-0.63,0.288-0.802
				c0.188-0.169,0.481-0.254,0.874-0.254h7.099c0.378,0,0.632,0.06,0.774,0.183c0.148,0.127,0.22,0.359,0.22,0.709V115.288z
				 M299.768,117.127c-0.162,0.182-0.421,0.274-0.772,0.274c-0.34,0-0.589-0.092-0.743-0.271c-0.15-0.179-0.23-0.479-0.245-0.921
				l-0.048-1.668h-1.624v6.276h1.359c0.417,0,0.709,0.082,0.896,0.249c0.188,0.169,0.284,0.438,0.284,0.799
				c0,0.366-0.097,0.638-0.284,0.807c-0.188,0.168-0.479,0.25-0.896,0.25h-5.146c-0.41,0-0.701-0.082-0.888-0.25
				c-0.188-0.169-0.281-0.44-0.281-0.807c0-0.368,0.094-0.638,0.277-0.804c0.186-0.165,0.476-0.244,0.892-0.244h1.36v-6.276h-1.624
				l-0.048,1.882c0,0.301-0.089,0.543-0.259,0.716c-0.171,0.174-0.407,0.263-0.705,0.263c-0.349,0-0.612-0.094-0.783-0.277
				c-0.168-0.181-0.254-0.467-0.254-0.849v-0.069l0.094-2.595c0.019-0.554,0.097-0.87,0.247-0.996
				c0.143-0.12,0.411-0.178,0.818-0.178h7.453c0.407,0,0.676,0.058,0.818,0.178c0.149,0.125,0.229,0.441,0.255,0.995l0.086,2.665
				C300.008,116.662,299.928,116.949,299.768,117.127z M310.884,99.079H88.092c-1.045,0-1.894-0.848-1.894-1.895
				c0-1.045,0.849-1.893,1.894-1.893h222.792c1.047,0,1.894,0.848,1.894,1.893C312.777,98.231,311.931,99.079,310.884,99.079z
				 M323.957,71.581c0,1.416-0.064,2.64-0.191,3.636c-0.129,1.005-0.418,2.01-0.863,2.988c-0.446,0.98-1.13,1.935-2.031,2.838
				c-1.929,1.93-4.609,2.907-7.973,2.907h-10.834c-0.078,0-0.142-0.062-0.142-0.141V54.582c0-0.079,0.063-0.142,0.142-0.142h10.834
				c3.363,0,6.044,0.979,7.973,2.907c0.901,0.903,1.585,1.859,2.031,2.839c0.445,0.979,0.734,1.983,0.863,2.987
				c0.127,0.997,0.191,2.221,0.191,3.637V71.581z M358.833,45.155c-3.579,0-6.485-2.903-6.485-6.482s2.906-6.482,6.485-6.482
				c3.576,0,6.474,2.903,6.474,6.482S362.409,45.155,358.833,45.155z"/>
			<path fill="#FFFEFE" d="M315.758,62.702c-0.708-1.052-1.83-1.584-3.342-1.584h-3.032v16.154h3.032
				c1.512,0,2.636-0.532,3.34-1.581c0.219-0.333,0.37-0.665,0.452-0.988c0.085-0.33,0.154-0.912,0.208-1.729
				c0.055-0.826,0.08-2.098,0.08-3.779c0-2.385-0.05-3.98-0.148-4.741C316.249,63.71,316.05,63.121,315.758,62.702z"/>
			<polygon fill="#FFFEFE" points="123.017,66.125 120.592,73.323 125.293,73.323 			"/>
			<path fill="#FFFEFE" d="M202.591,189.626c-1.235-1.241-3.419-1.241-4.652,0l-19.646,19.802c-1.274,1.286-1.263,3.358,0.02,4.63
				c1.286,1.276,3.358,1.269,4.633-0.02l17.317-17.456l17.326,17.456c0.638,0.646,1.482,0.969,2.319,0.969
				c0.839,0,1.674-0.317,2.312-0.949c1.281-1.271,1.29-3.344,0.013-4.63L202.591,189.626z"/>
			<path fill="#FFFEFE" d="M253.303,113.406c-0.447,0-0.802,0.158-1.08,0.482c-0.277,0.325-0.419,0.758-0.419,1.286
				c0,0.547,0.15,0.996,0.445,1.338c0.291,0.338,0.669,0.51,1.123,0.51c0.457,0,0.825-0.163,1.127-0.494
				c0.299-0.33,0.451-0.754,0.451-1.258c0-0.558-0.156-1.012-0.465-1.354C254.18,113.578,253.782,113.406,253.303,113.406z"/>
			<path fill="#FFFEFE" d="M189.407,120.143c0.413-0.585,0.623-1.414,0.623-2.463c0-1.043-0.209-1.867-0.619-2.45
				c-0.409-0.58-0.959-0.86-1.683-0.86c-0.718,0-1.265,0.28-1.674,0.86c-0.411,0.581-0.618,1.406-0.618,2.45
				c0,1.043,0.209,1.87,0.623,2.458c0.411,0.585,0.958,0.871,1.669,0.871C188.446,121.009,188.995,120.725,189.407,120.143z"/>
			<path fill="#FFFEFE" d="M202.591,160.971c-1.235-1.242-3.419-1.242-4.652,0l-19.646,19.804c-1.274,1.282-1.263,3.359,0.02,4.631
				c1.286,1.27,3.358,1.266,4.633-0.021l17.317-17.458l17.326,17.458c0.638,0.646,1.482,0.966,2.319,0.966
				c0.839,0,1.674-0.312,2.312-0.944c1.281-1.271,1.29-3.349,0.013-4.631L202.591,160.971z"/>
			<path fill="#FFFEFE" d="M202.591,175.296c-1.235-1.237-3.419-1.237-4.652,0l-19.646,19.808c-1.274,1.277-1.263,3.353,0.02,4.624
				c1.286,1.274,3.358,1.265,4.633-0.018l17.317-17.46l17.326,17.46c0.638,0.644,1.482,0.97,2.319,0.97
				c0.839,0,1.674-0.312,2.312-0.952c1.281-1.271,1.29-3.347,0.013-4.624L202.591,175.296z"/>
			<polygon fill="#FFFEFE" points="152.408,114.756 151.284,118.026 153.531,118.026 			"/>
			<path fill="#FFFEFE" d="M200.262,202.98c-1.806,0-3.271,1.464-3.271,3.272v25.285c0,1.81,1.465,3.281,3.271,3.281
				c1.81,0,3.275-1.472,3.275-3.281v-25.285C203.537,204.444,202.071,202.98,200.262,202.98z"/>
			<polygon fill="#FFFEFE" points="221.578,118.399 221.578,114.061 219.114,118.399 			"/>
		</g>
	</g>
</g>
</svg>
