<?xml version="1.0" encoding="iso-8859-1"?>
<!-- Generator: Adobe Illustrator 16.2.1, SVG Export Plug-In . SVG Version: 6.00 Build 0)  -->
<!DOCTYPE svg PUBLIC "-//W3C//DTD SVG 1.1//EN" "http://www.w3.org/Graphics/SVG/1.1/DTD/svg11.dtd">
<svg version="1.1" id="Layer_1" xmlns="http://www.w3.org/2000/svg" xmlns:xlink="http://www.w3.org/1999/xlink" x="0px" y="0px"
	 width="100px" height="100px" viewBox="0 0 100 100" style="enable-background:new 0 0 100 100;" xml:space="preserve">
<g>
	<path style="fill:#FFFFFF;" d="M49.846,0C22.316,0,0,22.317,0,49.847c0,27.529,22.317,49.847,49.847,49.847
		c27.529,0,49.847-22.317,49.847-49.847C99.693,22.317,77.375,0,49.846,0z M82.513,62.062c-0.439,0-55.865,0-64.941,0
		c-0.999,0-1.402-0.788-0.871-1.597c0.375-0.572,14.047-21.26,14.047-21.26c0.765-0.909,2.136-1.028,3.045-0.262l8.436,8.998
		l15.196-19.421c0.819-0.86,2.132-0.831,2.915,0.063c0,0,21.982,31.041,22.632,31.96C83.501,61.291,83.223,62.062,82.513,62.062z"/>
</g>
</svg>
