<?xml version="1.0" encoding="utf-8"?>
<!-- Generator: Adobe Illustrator 16.0.0, SVG Export Plug-In . SVG Version: 6.00 Build 0)  -->
<!DOCTYPE svg PUBLIC "-//W3C//DTD SVG 1.1//EN" "http://www.w3.org/Graphics/SVG/1.1/DTD/svg11.dtd">
<svg version="1.1" id="profile-outline" xmlns="http://www.w3.org/2000/svg" xmlns:xlink="http://www.w3.org/1999/xlink" x="0px"
	 y="0px" width="800px" height="28.332px" viewBox="0.5 423.5 800 28.332" enable-background="new 0.5 423.5 800 28.332"
	 xml:space="preserve" preserveAspectRatio="none">
<g>
	<g opacity="0.2">
		<path fill="#231F20" d="M801.333,442.789c-0.362,0-5.881-1.328-6.42-1.514c-0.536-0.183-1.885-0.426-2.552-0.875
			c-0.669-0.449-4.391-1.525-5.332-1.763c-0.942-0.232-13.137-6.228-13.715-6.634c-0.58-0.402-2.63-1.623-3.662-1.904
			c-1.031-0.281-3.351-1.592-3.574-1.682c-0.225-0.094-0.988-0.195-1.167-0.33c-0.177-0.131-0.937-0.451-1.209-0.412
			c-0.271,0.037-1.312,0.238-2.713,0.428c-1.401,0.195-2.728,1.178-3.096,1.48c-0.366,0.295-0.633,0.117-0.948,0.068
			c-0.314-0.049-3.214,0.684-3.625,0.898c-0.41,0.213-1.326,0.98-1.781,1.148c-0.453,0.166-3.361,1.25-4.173,1.322
			c-0.812,0.072-3.993,1.328-4.631,1.576c-0.635,0.254-2.455,1.094-2.995,1.086c-0.541-0.01-2.446,0.568-3.084,0.906
			c-0.639,0.34-4.621,1.053-5.347,1.303c-0.726,0.248-3.54,1.162-3.54,1.162c-0.541-0.012-7.186-1.443-8.708-2.084
			c-1.521-0.639-2.972-0.143-3.699,0.197c-0.729,0.336-3.544,1.333-5.358,1.826c-1.812,0.492-6.441,3.795-7.737,3.795
			c-0.208,0-0.474-0.053-0.767-0.137c-1.529-0.44-3.921-1.812-4.237-1.893c-0.375-0.09-0.527-0.156-0.925,0.11
			c-0.398,0.272-2.045,0.052-2.604,0.072c-0.556,0.023-2.188-0.667-2.318-1.093c-0.131-0.427-1.354-1.137-1.766-1.189
			c-0.411-0.055-2.763-1.873-3.449-2.238c-0.686-0.371-2.555-1.373-3.361-1.92c-0.805-0.541-2.168-0.234-2.755-0.027
			c-0.587,0.205-3.37,0.391-4.116,0.35s-2.74-0.533-3.728-0.963c-0.987-0.428-2.513,0.467-2.794,0.805
			c-0.282,0.336-2.508,0.5-2.88,0.518c-0.371,0.016-1.974-0.029-2.199-0.055c-0.224-0.025-1.057-0.316-1.531-0.115
			c-0.474,0.199-1.45,0.023-1.864-0.102c-0.416-0.131-1.451,0.057-1.82,0.109c-0.37,0.053-2.02-0.205-2.537-0.145
			c-0.519,0.059-2.203-0.16-2.576-0.145c-0.371,0.014-1.908-0.213-2.172-0.309c-0.266-0.098-1.421-0.156-1.689-0.326
			c-0.268-0.168-2.97-0.635-3.229-0.623c-0.263,0.01-1.121-0.1-1.385-0.16c-0.264-0.059-2.328-0.443-2.849-0.459
			c-0.522-0.014-2.3-0.664-2.794-0.893c-0.495-0.232-1.299,0.09-1.475,0.312c-0.179,0.225-0.438,0.236-0.765,0.395
			s-0.897,0.76-1.002,0.908c-0.104,0.15-0.466,0.418-0.763,0.43c-0.298,0.012-1.062,0.367-1.312,0.596
			c-0.252,0.23-0.365,0.197-0.698,0.244c-0.333,0.053-1.776,0.258-2.104,0.414c-0.327,0.16-1.521,0.102-2.12,0.057
			c-0.597-0.051-2.18,0.342-2.587,0.393c-0.407,0.057-1.276-0.23-1.462-0.225c-0.185,0.006-0.723,0.498-1.015,0.617
			c-0.292,0.121-0.872,0.473-1.198,0.664c-0.326,0.197-2.341,0.93-2.772,1.271c-0.432,0.344-1.12,0.77-1.708,0.938
			c-0.588,0.171-1.76,0.58-2.526,0.937c-0.767,0.359-2.512,0.467-3.038,0.342c-0.525-0.121-1.63,0.146-2.105,0.328
			s-1.52,0.186-2.008,0.099c-0.486-0.087-2.214,0.417-2.647,0.725c-0.432,0.307-2.291,0.386-2.769,0.514
			c-0.459,0.121-2.204,0.956-2.347,1.023c-1.39,0.414-3.346,0.498-3.732,0.579c-0.555,0.122-2.735,0.159-5.823-0.997
			c-3.089-1.154-7.64-0.963-8.275-0.939c-0.637,0.021-13.449,1.203-14.08,1.18c-0.633-0.018-2.199-0.18-2.764-0.809
			c-0.566-0.632-4.598-2.275-4.852-2.436c-0.254-0.159-1.256-0.524-1.496-0.814c-0.24-0.287-3.118-1.729-3.451-1.98
			c-0.335-0.258-0.48-1.414-0.477-1.85c0.002-0.441-0.377-0.701-0.377-0.701c-0.004-0.791-1.705-0.967-2.231-1.111
			c-0.53-0.139-1.906,0.027-2.507,0.137c-0.602,0.115-1.498,0.025-1.942-0.066c-0.441-0.088-2.276,0.115-2.743,0.246
			c-0.467,0.127-2.092,0.486-2.405,0.453s-1.302,0.307-1.728,0.48c-0.426,0.178-2.623,0.785-2.86,0.893
			c-0.239,0.105-0.806,0.314-1.401,0.383c-0.598,0.066-2.76,0.375-3.45,0.479c-0.689,0.104-1.726,0.041-2.159-0.137
			c-0.435-0.18-1.702-0.176-2.209-0.096c-0.506,0.078-1.473-0.193-2.084-0.391c-0.625-0.197-7.463-0.109-8.277-0.107
			c-0.816,0.006-5.314,1.779-5.552,1.887c-0.239,0.107-2.044,0.889-2.553,0.969c-0.507,0.079-2.099,0.972-2.405,1.297
			c-0.31,0.33-1.953,1.284-3.42,2.278c-1.35,0.907-3.5,1.418-4.743,1.444c-1.876-0.221-7.132-1.421-7.463-1.415
			c-0.364,0.009-2.089,0.099-3.402-0.18c-1.31-0.276-5.595-0.232-6.795-0.209c-1.2,0.026-2.197-0.056-2.619-0.293
			c-0.424-0.249-1.159-0.435-1.474-0.426c-0.312,0.005-1.367-0.276-1.684-0.371c-0.312-0.093-1.152-0.278-1.674-0.267
			c-0.525,0.012-6.155-1.792-6.68-1.833c-0.524-0.04-1.996-0.411-2.418-0.655c-0.428-0.244-2.414-0.357-3.625-0.633
			c-1.207-0.281-4.823-0.756-5.35-0.898c-0.521-0.139-0.265-0.246-0.682-0.236c-0.42,0.008-1.828,0.139-2.617-0.148
			c-0.791-0.287-3.583-1.291-4.168-1.686c-0.582-0.391-2.82,0.01-3.391,0.178c-0.57,0.162-1.211-0.328-1.477-0.525
			c-0.267-0.199-1.535-0.832-1.959-0.973c-0.42-0.146-1.309-0.227-1.889-0.412c-1.25-0.416-3.496,0.17-3.757,0.281
			c-0.256,0.107-1.396,0.637-1.971,0.6c-0.575-0.041-1.817,0.447-2.129,0.453c-0.318,0.008-1.71,0.695-2.28,0.91
			c-0.572,0.217-2.435,0.967-2.898,1.229c-0.465,0.262-1.867,0.6-2.285,0.658c-0.417,0.061-2.034,0.197-2.551,0.363
			c-0.52,0.158-1.449,0.637-2.18,0.652s-3.28,0.629-3.481,0.837c-0.207,0.206-1.145,0.278-1.874,0.392
			c-0.728,0.119-3.827,1.757-4.447,2.128c-0.617,0.365-2.599,0.461-3.179,0.371c-0.637-0.093-1.612,0.339-1.869,0.444
			c-0.261,0.112-0.829,0.426-1.349,0.438c-0.521,0.014-2.45,0.205-2.864,0.368c-0.418,0.159-0.716,0.689-1.396,0.689
			c-0.03,0-0.088-0.009-0.126-0.009c-0.449-0.075-3.708-0.299-4.311-0.09c-0.604,0.209-3.145-0.267-3.74-0.42
			c-0.598-0.156-3.595-0.203-4.194-0.212c-0.599-0.012-2.611-0.623-3.134-0.85c-0.521-0.226-2.017-0.467-5.685-0.669
			c-3.67-0.2-10.445-2.924-10.965-3.223c-0.52-0.301-3.72-1.66-4.615-1.889c-0.896-0.232-6.265-1.842-7.31-2.148
			c-1.044-0.309-5.258,0.646-6.01,0.852c-0.753,0.207-14.461,4.357-16.497,5.054c-2.035,0.696-5.182,0.574-5.854,0.417
			c-0.672-0.153-2.023,0.044-2.548,0.035s-0.905,0.348-2.253,0.256c-1.348-0.094-4.273,0.153-5.255,0.501
			c-0.98,0.348-3.148,0.096-3.742-0.278c-0.579-0.362-2.17-0.252-2.699-0.041c-0.527,0.212-2.479,0.397-3.004,0.461
			c-0.525,0.067-2.938,0.83-3.994,1.253c-1.055,0.417-2.849,1.026-4.193,1.032c-2.572-0.957-10.421-4.528-10.994-4.752
			c-0.664-0.258-4.352-2.045-5.354-2.484c-1.003-0.441-6.087-0.971-7.046-0.893c-0.956,0.074-10.588-2.277-11.228-2.225
			s-3.493-0.76-4.053-1.025c-0.558-0.27-7.919-4.883-8.918-5.324c-1.004-0.439-3.858-1.252-5.782-2.449
			c-1.923-1.197-6.492,0.52-7.451,0.592c-0.961,0.08-8.646,2.982-9.248,3.447c-0.605,0.461-5.043,2.479-5.879,2.754
			c-0.833,0.277-4.447,3.16-5.574,3.775c-1.128,0.607-4.298,3.666-5.965,4.221c-0.906,0.296-4.759,2.041-6.438,2.487
			c-1.675,0.444-4.379,2.05-5.609,2.05c-0.111,0-4.012-0.682-4.934-0.85c-0.964-0.18-1.953-1.075-2.792-0.739
			c-0.843,0.333-1.271,0.243-2.972,0.299c-1.703,0.05-6.275,0.299-7.541,0.644c-1.266,0.351-6.003-1.156-7.077-1.436
			c-1.073-0.275-3.531-0.51-4.271-0.281c-0.735,0.229-4.113-2.041-5.307-2.729c-1.192-0.684-4.769-2.539-5.301-2.521
			c-0.531,0.018-2.457-0.234-3.746-0.605c-1.292-0.375-3.44-0.932-3.948-0.191c-0.509,0.742-1.366,0.559-2.43,0.594
			c-1.063,0.031-4.449,0.756-5.824,1.006c-1.378,0.25-5.957,0.289-7.346,0.125c-1.617-0.191-8.097-0.061-8.831,0.271
			c-0.734,0.334-7.201,1.256-8.683,1.506c-1.484,0.252-4.631,1.693-5.997,2.253c-1.365,0.56-12.289,3.502-13.462,3.542
			c-1.123,0.035-5.16-1.953-7.501-2.596c-1.989-0.546-7.661-5.223-7.969-5.449c-0.305-0.229-4.808-2.412-5.173-2.465
			c-0.36-0.053-4.015-1.957-4.562-2.24c-0.55-0.275-2.562-1.404-3.534-1.91c-0.532-0.275-2.841-0.525-3.562-0.512
			c-0.725,0.018-5.925-0.982-7.498-1.301c-1.57-0.316-5.646,0.527-6.002,0.594c-0.361,0.066-4.972,1.273-5.691,1.406
			c-0.719,0.131-4.189,1.021-5.27,1.279c-1.078,0.252-5.648,0.467-6.309,0.48c-0.662,0.018-3.477,0.717-3.897,0.779
			c-0.713,0.113-4.811,0.105-5.173,0.111c-0.363,0.008-2.867,1.053-3.22,1.412s-4.954,1.971-5.969,2.4
			c-1.015,0.432-7.769,2.499-8.487,2.629c-0.722,0.134-4.832,1.975-5.492,2.163c-0.534,0.157-3.585,1.409-4.691,1.87v9.043h800
			v-9.043C801.436,442.789,801.364,442.789,801.333,442.789z"/>
	</g>
	<g>
		<path fill="#FFFFFF" d="M800.333,442.789c-0.362,0-5.881-1.328-6.42-1.514c-0.536-0.183-1.885-0.426-2.552-0.875
			c-0.669-0.449-4.391-1.525-5.332-1.763c-0.942-0.232-13.137-6.228-13.715-6.634c-0.58-0.402-2.63-1.623-3.662-1.904
			c-1.031-0.281-3.351-1.592-3.574-1.682c-0.225-0.094-0.988-0.195-1.167-0.33c-0.177-0.131-0.937-0.451-1.209-0.412
			c-0.271,0.037-1.312,0.238-2.713,0.428c-1.401,0.195-2.728,1.178-3.096,1.48c-0.366,0.295-0.633,0.117-0.948,0.068
			c-0.314-0.049-3.214,0.684-3.625,0.898c-0.41,0.213-1.326,0.98-1.781,1.148c-0.453,0.166-3.361,1.25-4.173,1.322
			c-0.812,0.072-3.993,1.328-4.631,1.576c-0.635,0.254-2.455,1.094-2.995,1.086c-0.541-0.01-2.446,0.568-3.084,0.906
			c-0.639,0.34-4.621,1.053-5.347,1.303c-0.726,0.248-3.54,1.162-3.54,1.162c-0.541-0.012-7.186-1.443-8.708-2.084
			c-1.521-0.639-2.972-0.143-3.699,0.197c-0.729,0.336-3.544,1.333-5.358,1.826c-1.812,0.492-6.441,3.795-7.737,3.795
			c-0.208,0-0.474-0.053-0.767-0.137c-1.529-0.44-3.921-1.812-4.237-1.893c-0.375-0.09-0.527-0.156-0.925,0.11
			c-0.398,0.272-2.045,0.052-2.604,0.072c-0.556,0.023-2.188-0.667-2.318-1.093c-0.131-0.427-1.354-1.137-1.766-1.189
			c-0.411-0.055-2.763-1.873-3.449-2.238c-0.686-0.371-2.555-1.373-3.361-1.92c-0.805-0.541-2.168-0.234-2.755-0.027
			c-0.587,0.205-3.37,0.391-4.116,0.35s-2.74-0.533-3.728-0.963c-0.987-0.428-2.513,0.467-2.794,0.805
			c-0.282,0.336-2.508,0.5-2.88,0.518c-0.371,0.016-1.974-0.029-2.199-0.055c-0.224-0.025-1.057-0.316-1.531-0.115
			c-0.474,0.199-1.45,0.023-1.864-0.102c-0.416-0.131-1.451,0.057-1.82,0.109c-0.37,0.053-2.02-0.205-2.537-0.145
			c-0.519,0.059-2.203-0.16-2.576-0.145c-0.371,0.014-1.908-0.213-2.172-0.309c-0.266-0.098-1.421-0.156-1.689-0.326
			c-0.268-0.168-2.97-0.635-3.229-0.623c-0.263,0.01-1.121-0.1-1.385-0.16c-0.264-0.059-2.328-0.443-2.849-0.459
			c-0.522-0.014-2.3-0.664-2.794-0.893c-0.495-0.232-1.299,0.09-1.475,0.312c-0.179,0.225-0.438,0.236-0.765,0.395
			s-0.897,0.76-1.002,0.908c-0.104,0.15-0.466,0.418-0.763,0.43c-0.298,0.012-1.062,0.367-1.312,0.596
			c-0.252,0.23-0.365,0.197-0.698,0.244c-0.333,0.053-1.776,0.258-2.104,0.414c-0.327,0.16-1.521,0.102-2.12,0.057
			c-0.597-0.051-2.18,0.342-2.587,0.393c-0.407,0.057-1.276-0.23-1.462-0.225c-0.185,0.006-0.723,0.498-1.015,0.617
			c-0.292,0.121-0.872,0.473-1.198,0.664c-0.326,0.197-2.341,0.93-2.772,1.271c-0.432,0.344-1.12,0.77-1.708,0.938
			c-0.588,0.171-1.76,0.58-2.526,0.937c-0.767,0.359-2.512,0.467-3.038,0.342c-0.525-0.121-1.63,0.146-2.105,0.328
			s-1.52,0.186-2.008,0.099c-0.486-0.087-2.214,0.417-2.647,0.725c-0.432,0.307-2.291,0.386-2.769,0.514
			c-0.459,0.121-2.204,0.956-2.347,1.023c-1.39,0.414-3.346,0.498-3.732,0.579c-0.555,0.122-2.735,0.159-5.823-0.997
			c-3.089-1.154-7.64-0.963-8.275-0.939c-0.637,0.021-13.449,1.203-14.08,1.18c-0.633-0.018-2.199-0.18-2.764-0.809
			c-0.566-0.632-4.598-2.275-4.852-2.436c-0.254-0.159-1.256-0.524-1.496-0.814c-0.24-0.287-3.118-1.729-3.451-1.98
			c-0.335-0.258-0.48-1.414-0.477-1.85c0.002-0.441-0.377-0.701-0.377-0.701c-0.004-0.791-1.705-0.967-2.231-1.111
			c-0.53-0.139-1.906,0.027-2.507,0.137c-0.602,0.115-1.498,0.025-1.942-0.066c-0.441-0.088-2.276,0.115-2.743,0.246
			c-0.467,0.127-2.092,0.486-2.405,0.453s-1.302,0.307-1.728,0.48c-0.426,0.178-2.623,0.785-2.86,0.893
			c-0.239,0.105-0.806,0.314-1.401,0.383c-0.598,0.066-2.76,0.375-3.45,0.479c-0.689,0.104-1.726,0.041-2.159-0.137
			c-0.435-0.18-1.702-0.176-2.209-0.096c-0.506,0.078-1.473-0.193-2.084-0.391c-0.625-0.197-7.463-0.109-8.277-0.107
			c-0.816,0.006-5.314,1.779-5.552,1.887c-0.239,0.107-2.044,0.889-2.553,0.969c-0.507,0.079-2.099,0.972-2.405,1.297
			c-0.31,0.33-1.953,1.284-3.42,2.278c-1.35,0.907-3.5,1.418-4.743,1.444c-1.876-0.221-7.132-1.421-7.463-1.415
			c-0.364,0.009-2.089,0.099-3.402-0.18c-1.31-0.276-5.595-0.232-6.795-0.209c-1.2,0.026-2.197-0.056-2.619-0.293
			c-0.424-0.249-1.159-0.435-1.474-0.426c-0.312,0.005-1.367-0.276-1.684-0.371c-0.312-0.093-1.152-0.278-1.674-0.267
			c-0.525,0.012-6.155-1.792-6.68-1.833c-0.524-0.04-1.996-0.411-2.418-0.655c-0.428-0.244-2.414-0.357-3.625-0.633
			c-1.207-0.281-4.823-0.756-5.35-0.898c-0.521-0.139-0.265-0.246-0.682-0.236c-0.42,0.008-1.828,0.139-2.617-0.148
			c-0.791-0.287-3.583-1.291-4.168-1.686c-0.582-0.391-2.82,0.01-3.391,0.178c-0.57,0.162-1.211-0.328-1.477-0.525
			c-0.267-0.199-1.535-0.832-1.959-0.973c-0.42-0.146-1.309-0.227-1.889-0.412c-1.25-0.416-3.496,0.17-3.757,0.281
			c-0.256,0.107-1.396,0.637-1.971,0.6c-0.575-0.041-1.817,0.447-2.129,0.453c-0.318,0.008-1.71,0.695-2.28,0.91
			c-0.572,0.217-2.435,0.967-2.898,1.229c-0.465,0.262-1.867,0.6-2.285,0.658c-0.417,0.061-2.034,0.197-2.551,0.363
			c-0.52,0.158-1.449,0.637-2.18,0.652s-3.28,0.629-3.481,0.837c-0.207,0.206-1.145,0.278-1.874,0.392
			c-0.728,0.119-3.827,1.757-4.447,2.128c-0.617,0.365-2.599,0.461-3.179,0.371c-0.637-0.093-1.612,0.339-1.869,0.444
			c-0.261,0.112-0.829,0.426-1.349,0.438c-0.521,0.014-2.45,0.205-2.864,0.368c-0.418,0.159-0.716,0.689-1.396,0.689
			c-0.03,0-0.088-0.009-0.126-0.009c-0.449-0.075-3.708-0.299-4.311-0.09c-0.604,0.209-3.145-0.267-3.74-0.42
			c-0.598-0.156-3.595-0.203-4.194-0.212c-0.599-0.012-2.611-0.623-3.134-0.85c-0.521-0.226-2.017-0.467-5.685-0.669
			c-3.67-0.2-10.445-2.924-10.965-3.223c-0.52-0.301-3.72-1.66-4.615-1.889c-0.896-0.232-6.265-1.842-7.31-2.148
			c-1.044-0.309-5.258,0.646-6.01,0.852c-0.753,0.207-14.461,4.357-16.497,5.054c-2.035,0.696-5.182,0.574-5.854,0.417
			c-0.672-0.153-2.023,0.044-2.548,0.035s-0.905,0.348-2.253,0.256c-1.348-0.094-4.273,0.153-5.255,0.501
			c-0.98,0.348-3.148,0.096-3.742-0.278c-0.579-0.362-2.17-0.252-2.699-0.041c-0.527,0.212-2.479,0.397-3.004,0.461
			c-0.525,0.067-2.938,0.83-3.994,1.253c-1.055,0.417-2.849,1.026-4.193,1.032c-2.572-0.957-10.421-4.528-10.994-4.752
			c-0.664-0.258-4.352-2.045-5.354-2.484c-1.003-0.441-6.087-0.971-7.046-0.893c-0.956,0.074-10.588-2.277-11.228-2.225
			s-3.493-0.76-4.053-1.025c-0.558-0.27-7.919-4.883-8.918-5.324c-1.004-0.439-3.858-1.252-5.782-2.449
			c-1.923-1.197-6.492,0.52-7.451,0.592c-0.961,0.08-8.646,2.982-9.248,3.447c-0.605,0.461-5.043,2.479-5.879,2.754
			c-0.833,0.277-4.447,3.16-5.574,3.775c-1.128,0.607-4.298,3.666-5.965,4.221c-0.906,0.296-4.759,2.041-6.438,2.487
			c-1.675,0.444-4.379,2.05-5.609,2.05c-0.111,0-4.012-0.682-4.934-0.85c-0.964-0.18-1.953-1.075-2.792-0.739
			c-0.843,0.333-1.271,0.243-2.972,0.299c-1.703,0.05-6.275,0.299-7.541,0.644c-1.266,0.351-6.003-1.156-7.077-1.436
			c-1.073-0.275-3.531-0.51-4.271-0.281c-0.735,0.229-4.113-2.041-5.307-2.729c-1.192-0.684-4.769-2.539-5.301-2.521
			c-0.531,0.018-2.457-0.234-3.746-0.605c-1.292-0.375-3.44-0.932-3.948-0.191c-0.509,0.742-1.366,0.559-2.43,0.594
			c-1.063,0.031-4.449,0.756-5.824,1.006c-1.378,0.25-5.957,0.289-7.346,0.125c-1.617-0.191-8.097-0.061-8.831,0.271
			c-0.734,0.334-7.201,1.256-8.683,1.506c-1.484,0.252-4.631,1.693-5.997,2.253c-1.365,0.56-12.289,3.502-13.462,3.542
			c-1.123,0.035-5.16-1.953-7.501-2.596c-1.989-0.546-7.661-5.223-7.969-5.449c-0.305-0.229-4.808-2.412-5.173-2.465
			c-0.36-0.053-4.015-1.957-4.562-2.24c-0.55-0.275-2.562-1.404-3.534-1.91c-0.532-0.275-2.841-0.525-3.562-0.512
			c-0.725,0.018-5.925-0.982-7.498-1.301c-1.57-0.316-5.646,0.527-6.002,0.594c-0.361,0.066-4.972,1.273-5.691,1.406
			c-0.719,0.131-4.189,1.021-5.27,1.279c-1.078,0.252-5.648,0.467-6.309,0.48c-0.662,0.018-3.477,0.717-3.897,0.779
			c-0.713,0.113-4.811,0.105-5.173,0.111c-0.363,0.008-2.867,1.053-3.22,1.412s-4.954,1.971-5.969,2.4
			c-1.015,0.432-7.769,2.499-8.487,2.629c-0.722,0.134-4.832,1.975-5.492,2.163c-0.534,0.157-3.585,1.409-4.691,1.87v9.043h800
			v-9.043C800.436,442.789,800.364,442.789,800.333,442.789z"/>
	</g>
</g>
</svg>
